<svg width="20" height="20" viewBox="0 0 20 20" fill="none" xmlns="http://www.w3.org/2000/svg" class="chart">
    <path
      d="M10.0002 0.714275C10.0002 0.52484 10.0754 0.343157 10.2094 0.209206C10.3433 0.075256 10.525 0 10.7144 0C11.9338 0 13.1412 0.240177 14.2679 0.706818C15.3945 1.17347 16.4181 1.85744 17.2803 2.71968C18.1426 3.58193 18.8265 4.60556 19.2932 5.73214C19.7598 6.85871 20 8.06617 20 9.28557C20 9.475 19.9248 9.65671 19.7908 9.79061C19.6569 9.92461 19.4752 9.99984 19.2857 9.99984H10.7144C10.525 9.99984 10.3433 9.92461 10.2094 9.79061C10.0754 9.65671 10.0002 9.475 10.0002 9.28557V0.714275ZM8.57161 3.6028C8.57161 3.50357 8.55094 3.40544 8.51094 3.31465C8.47094 3.22385 8.41237 3.1424 8.33913 3.07547C8.2659 3.00853 8.17952 2.9576 8.08549 2.92591C7.99146 2.89421 7.89186 2.88245 7.79305 2.89138C6.17085 3.03929 4.62438 3.64637 3.33479 4.64154C2.04521 5.63671 1.06589 6.97874 0.511568 8.51044C-0.0427563 10.0421 -0.149145 11.7001 0.204878 13.2901C0.558892 14.8801 1.35865 16.3363 2.51047 17.4881C3.6623 18.6399 5.11849 19.4397 6.70848 19.7937C8.29847 20.1477 9.95644 20.0413 11.4881 19.487C13.0198 18.9327 14.3619 17.9533 15.357 16.6637C16.3522 15.3741 16.9593 13.8277 17.1072 12.2055C17.1159 12.107 17.104 12.0076 17.0723 11.9138C17.0406 11.8201 16.9898 11.7339 16.923 11.6609C16.8562 11.5878 16.7751 11.5294 16.6845 11.4894C16.5941 11.4493 16.4961 11.4286 16.3972 11.4284H8.57161V3.6028Z"
      fill="#77D7C7"
    />
  </svg>