<svg width="24" height="24" viewBox="0 0 20 20" fill="none" xmlns="http://www.w3.org/2000/svg">
    <path
        d="M13.0916 11.1437C13.0916 10.7315 12.757 10.3974 12.3443 10.3974H11.8755C11.4628 10.3974 11.1282 10.7315 11.1282 11.1437C11.1282 11.5558 11.4628 11.8899 11.8755 11.8899H12.3443C12.757 11.8899 13.0916 11.5558 13.0916 11.1437Z"
        fill="white"
    />
    <path
        d="M9.06227 10.3974C9.47497 10.3974 9.80952 10.7315 9.80952 11.1437C9.80952 11.5558 9.47497 11.8899 9.06227 11.8899H8.59341C8.18071 11.8899 7.84615 11.5558 7.84615 11.1437C7.84615 10.7315 8.18071 10.3974 8.59341 10.3974H9.06227Z"
        fill="white"
    />
    <path
        d="M16.3736 11.1437C16.3736 10.7315 16.0391 10.3974 15.6264 10.3974H15.1575C14.7448 10.3974 14.4103 10.7315 14.4103 11.1437C14.4103 11.5558 14.7448 11.8899 15.1575 11.8899H15.6264C16.0391 11.8899 16.3736 11.5558 16.3736 11.1437Z"
        fill="white"
    />
    <path
        fill-rule="evenodd"
        clip-rule="evenodd"
        d="M15.6264 0C15.9703 0 16.2491 0.278422 16.2491 0.621873V5.03216H19.3773C19.7212 5.03216 20 5.31059 20 5.65404V16.6333C20 16.9768 19.7212 17.2552 19.3773 17.2552H12.0293V19.3781C12.0293 19.6197 11.8892 19.8394 11.67 19.9416C11.4509 20.0438 11.1922 20.01 11.0068 19.8549L7.89824 17.2552H4.37363C4.02971 17.2552 3.75092 16.9768 3.75092 16.6333V10.6979L2.2084 12.0661C2.02509 12.2287 1.7633 12.2687 1.53966 12.1684C1.31603 12.068 1.17216 11.846 1.17216 11.6011V9.93567H0.622711C0.278796 9.93567 0 9.65724 0 9.31379V0.621873C0 0.278422 0.278796 0 0.622711 0H15.6264ZM3.75092 9.03439L2.41758 10.217V9.31379C2.41758 8.97034 2.13879 8.69192 1.79487 8.69192H1.24542V1.24375H15.0037V5.03216H4.37363C4.03106 5.03216 3.7531 5.30841 3.75093 5.65001L3.75092 5.65404V9.03439ZM15.6272 6.27591H18.7546V16.0114H11.4066C11.0627 16.0114 10.7839 16.2899 10.7839 16.6333V18.0462L8.52435 16.1565C8.41227 16.0628 8.27073 16.0114 8.12454 16.0114H4.99634L4.99634 6.27591L15.6272 6.27591Z"
        fill="white"
    />
</svg>