<svg width="20" height="20" viewBox="0 0 20 20" fill="none" xmlns="http://www.w3.org/2000/svg"
    class="folder">
    <path
        d="M0 16.8333C0 17.1428 0.122916 17.4395 0.341709 17.6583C0.560501 17.8771 0.857247 18 1.16667 18H18.8333C19.1428 18 19.4395 17.8771 19.6583 17.6583C19.8771 17.4395 20 17.1428 20 16.8333V8H0V16.8333ZM20 4.5C20 4.19058 19.8771 3.89383 19.6583 3.67504C19.4395 3.45625 19.1428 3.33333 18.8333 3.33333H8.20167L6.20167 2H1.16667C0.857247 2 0.560501 2.12292 0.341709 2.34171C0.122916 2.5605 0 2.85725 0 3.16667V6.66667H20V4.5Z"
        fill="#3b82f6"
    />
</svg>