<svg
    width="20"
    height="20"
    viewBox="0 0 20 20"
    fill="none"
    xmlns="http://www.w3.org/2000/svg"
    class="folder--hover"
>
    <path
        d="M1.51012 17.0472C1.08527 17.0472 0.727541 16.9015 0.436927 16.6103C0.145642 16.3197 0 15.9619 0 15.5371V4.57966C0 4.15481 0.164771 3.77728 0.494312 3.44707C0.824524 3.11753 1.20172 2.95276 1.62589 2.95276H6.64049L8.65398 4.96625H16.4955C16.8425 4.96625 17.1455 5.06021 17.4046 5.24814C17.6637 5.43606 17.8446 5.67768 17.9472 5.97299H1.00675V15.4213C1.00675 15.5629 1.04232 15.679 1.11346 15.7696C1.1846 15.8602 1.27823 15.9374 1.39434 16.0012L3.67462 8.37408H20L17.7167 15.981C17.6214 16.3005 17.4385 16.5582 17.168 16.7542C16.8975 16.9495 16.5955 17.0472 16.262 17.0472H1.51012Z"
        fill="#FFFFFF"
    />
</svg>