<svg width="20" height="20" viewBox="0 0 20 20" fill="none" xmlns="http://www.w3.org/2000/svg" class="oz">
    <path
      d="M9.80044 4.14181C9.83587 3.83045 9.8713 3.5191 9.9078 3.19832C13.2382 3.19832 16.5687 3.19832 20 3.19832C20 3.50967 20 3.82102 20 4.14181C19.8415 4.15028 19.8415 4.15028 19.6797 4.15893C18.6814 4.21231 17.6831 4.26608 16.6849 4.32022C16.1717 4.34804 15.6586 4.37572 15.1454 4.4031C14.6497 4.42955 14.154 4.45636 13.6584 4.4834C13.4698 4.49363 13.2811 4.50373 13.0924 4.51372C12.8272 4.52776 12.562 4.54226 12.2968 4.55685C12.2196 4.56084 12.1424 4.56483 12.0629 4.56894C11.5549 4.5975 11.056 4.65681 10.552 4.73149C10.6273 4.78986 10.7026 4.84824 10.7801 4.90839C11.0677 5.1831 11.1725 5.36084 11.3572 5.71183C11.5124 5.95586 11.5124 5.95586 11.733 6.14672C12.0002 6.18733 12.0002 6.18733 12.3046 6.13751C12.4289 6.12281 12.5532 6.10811 12.6812 6.09296C12.8304 6.07198 12.9796 6.05054 13.1287 6.02878C13.2152 6.01645 13.3017 6.00413 13.3908 5.99142C14.2101 5.87347 15.0283 5.74553 15.8463 5.61702C16.159 5.56807 16.4718 5.51991 16.7845 5.47181C16.879 5.4567 16.9736 5.4416 17.0709 5.42603C17.6239 5.34133 18.1533 5.30667 18.7116 5.32117C18.5479 5.90841 18.3282 6.44733 18.0871 6.99946C18.0469 7.09261 18.0065 7.18577 17.965 7.28175C17.8363 7.57925 17.707 7.87655 17.5776 8.17375C17.4936 8.36746 17.4097 8.56117 17.3257 8.75488C17.1579 9.1423 16.99 9.52952 16.8219 9.91674C16.4122 10.8606 16.0053 11.8059 15.5981 12.7511C15.7323 12.7138 15.8664 12.6764 16.0046 12.6378C16.3903 12.5304 16.7747 12.4488 17.1683 12.3826C17.2826 12.3628 17.3969 12.3431 17.5147 12.3227C18.1782 12.2377 18.1782 12.2377 18.4969 12.2794C18.7523 12.5125 18.7523 12.5125 18.9868 12.8249C19.0687 12.9322 19.1507 13.0395 19.235 13.1501C19.3104 13.252 19.3856 13.3538 19.4632 13.4588C19.5728 13.5964 19.6824 13.7339 19.792 13.8715C20 14.1664 20 14.1664 20 14.4022C18.0515 14.7631 16.1023 15.1197 14.1508 15.4606C13.9708 15.4921 13.7909 15.5236 13.6109 15.5554C13.3585 15.5998 13.1061 15.6437 12.8536 15.6876C12.7788 15.7008 12.7041 15.714 12.6271 15.7277C12.2859 15.7863 11.9725 15.8175 11.6256 15.8175C11.8582 14.977 12.1727 14.224 12.5382 13.444C12.6535 13.1946 12.7685 12.945 12.8834 12.6954C12.971 12.5051 12.971 12.5051 13.0603 12.3111C13.3425 11.6923 13.6154 11.0686 13.887 10.444C13.9598 10.2769 13.9598 10.2769 14.0342 10.1065C14.2811 9.53738 14.5127 8.96785 14.7392 8.38751C14.066 8.42642 13.3928 8.46534 12.6993 8.50544C12.7524 8.73896 12.7524 8.73896 12.8066 8.97719C12.9152 11.144 12.554 12.9228 11.2297 14.616C10.0077 16.0112 8.54374 16.7376 6.79425 16.8789C4.94733 16.8982 3.21626 16.2934 1.84881 14.8882C0.637357 13.4314 -0.0219237 11.7057 0.000556524 9.71104C0.156911 7.71537 0.932133 6.06944 2.28497 4.73149C2.97197 4.14711 3.71537 3.73101 4.53961 3.43419C4.64736 3.39428 4.64736 3.39428 4.75727 3.35357C6.43768 2.83984 8.31282 3.20854 9.80044 4.14181ZM3.57334 7.79782C3.01578 8.76166 2.79902 9.6736 2.97487 10.8043C3.23497 11.9296 3.83799 12.7262 4.73631 13.3228C5.58051 13.8158 6.59488 13.8394 7.52189 13.626C8.40632 13.2899 9.2136 12.5705 9.6461 11.6529C9.99673 10.6648 10.0733 9.58957 9.73334 8.57915C9.27579 7.50063 8.54464 6.8345 7.53448 6.40424C6.01603 5.92815 4.58342 6.49117 3.57334 7.79782Z"
      fill="#F37C25"
    />
  </svg>