<svg width="20" height="20" viewBox="0 0 20 20" fill="none" xmlns="http://www.w3.org/2000/svg"
    class="python">
    <path
        d="M9.92807 0C4.8506 0 5.16747 2.21342 5.16747 2.21342L5.17372 4.50663H10.0187V5.19459H3.24811C3.24811 5.19459 0 4.82391 0 9.97452C0 15.1239 2.83561 14.9417 2.83561 14.9417H4.5281V12.5517C4.5281 12.5517 4.43685 9.70122 7.31871 9.70122H12.1237C12.1237 9.70122 14.8237 9.7452 14.8237 7.07817V2.66829C14.8237 2.66829 15.2337 0 9.92807 0ZM7.25621 1.54179C7.73808 1.54179 8.12808 1.93384 8.12808 2.41824C8.12808 2.90264 7.73808 3.29468 7.25621 3.29468C7.14167 3.29485 7.02822 3.27229 6.92237 3.2283C6.81651 3.18432 6.72033 3.11977 6.63934 3.03835C6.55834 2.95693 6.49413 2.86024 6.45037 2.75383C6.40662 2.64742 6.38418 2.53338 6.38434 2.41824C6.38434 1.93384 6.77434 1.54179 7.25621 1.54179Z"
        fill="url(#paint0_linear_14_96695)"
    />
    <path
        d="M10.0719 19.9997C15.1494 19.9997 14.8325 17.7863 14.8325 17.7863L14.8262 15.4931H9.98127V14.8051H16.7512C16.7512 14.8051 20 15.1758 20 10.0258C20 4.87584 17.1644 5.05866 17.1644 5.05866H15.4719V7.448C15.4719 7.448 15.5631 10.2985 12.6813 10.2985H7.87628C7.87628 10.2985 5.17629 10.2545 5.17629 12.9215V17.3314C5.17629 17.3314 4.7663 19.9997 10.0719 19.9997ZM12.7438 18.4579C12.6292 18.4581 12.5158 18.4355 12.4099 18.3915C12.3041 18.3476 12.2079 18.283 12.1269 18.2016C12.0459 18.1202 11.9817 18.0235 11.9379 17.9171C11.8942 17.8107 11.8717 17.6966 11.8719 17.5815C11.8719 17.0977 12.2619 16.7057 12.7438 16.7057C13.2256 16.7057 13.6156 17.0971 13.6156 17.5815C13.6156 18.0665 13.2256 18.4579 12.7438 18.4579Z"
        fill="url(#paint1_linear_14_96695)"
    />
    <defs>
        <linearGradient
            id="paint0_linear_14_96695"
            x1="1.92186"
            y1="1.74787"
            x2="11.8631"
            y2="11.6703"
            gradientUnits="userSpaceOnUse"
        >
            <stop stop-color="#387EB8" />
            <stop offset="1" stop-color="#366994" />
        </linearGradient>
        <linearGradient
            id="paint1_linear_14_96695"
            x1="8.00565"
            y1="8.09324"
            x2="18.68"
            y2="18.2664"
            gradientUnits="userSpaceOnUse"
        >
            <stop stop-color="#FFE052" />
            <stop offset="1" stop-color="#FFC331" />
        </linearGradient>
    </defs>
</svg>