<svg width="24" height="24" viewBox="0 0 22 22" fill="none" xmlns="http://www.w3.org/2000/svg">
    <path
        d="M19.6379 13.136L19.5779 12.539L19.5589 12.541L19.5399 12.544L19.6379 13.136ZM19.6379 13.136L19.6979 13.733L19.7179 13.731L19.7379 13.728L19.6379 13.136ZM15.5979 18.618L15.9779 18.154L15.9729 18.15L15.5979 18.618ZM15.5979 18.618L15.2179 19.083L15.2229 19.087L15.5979 18.618ZM6.4019 18.618L6.0219 18.155L6.0119 18.162L6.0029 18.17L6.4019 18.618ZM6.4019 18.618L6.7819 19.083L6.7919 19.076L6.8009 19.067L6.4019 18.618ZM2.3609 8.86403V8.26402H2.3309L2.3009 8.26702L2.3609 8.86403ZM2.3609 8.86403V9.46402H2.3909L2.4209 9.46103L2.3609 8.86403ZM13.7329 2.30102C13.7142 2.09036 13.6916 1.90736 13.6669 1.75202C13.6428 1.58301 13.5918 1.41893 13.5159 1.26602L12.4499 1.81702C12.4675 1.86022 12.4789 1.90466 12.4839 1.95102C12.5009 2.05602 12.5159 2.19502 12.5379 2.42102L13.7329 2.30102ZM13.9069 3.45302C13.9109 3.45802 13.8769 3.41602 13.8399 3.20602C13.7933 2.90571 13.7583 2.60386 13.7329 2.30102L12.5379 2.42102C12.5779 2.82102 12.6109 3.15602 12.6579 3.41802C12.7049 3.67502 12.7779 3.95102 12.9529 4.18102L13.9069 3.45302ZM14.2789 3.60702C14.2088 3.61654 14.1375 3.60729 14.0721 3.58024C14.0068 3.55319 13.9498 3.50929 13.9069 3.45302L12.9529 4.18102C13.1242 4.40542 13.3518 4.58052 13.6126 4.68853C13.8734 4.79654 14.1581 4.83363 14.4379 4.79602L14.2789 3.60702ZM15.2169 2.91602C14.9849 3.11234 14.7461 3.30045 14.5009 3.48002C14.3249 3.60202 14.2729 3.60802 14.2779 3.60702L14.4379 4.79602C14.7249 4.75602 14.9719 4.61402 15.1859 4.46502C15.4049 4.31302 15.6659 4.09902 15.9759 3.84502L15.2169 2.91602ZM16.1019 2.33602C15.9398 2.39074 15.7875 2.47109 15.6509 2.57402C15.5023 2.68299 15.3576 2.79706 15.2169 2.91602L15.9759 3.84502C16.0963 3.7434 16.2207 3.64536 16.3469 3.55102C16.3834 3.52187 16.4238 3.49797 16.4669 3.48002L16.1019 2.33602ZM17.2249 2.39302C16.8697 2.23911 16.4707 2.21821 16.1019 2.33602L16.4669 3.48002C16.5589 3.45076 16.6583 3.45573 16.7469 3.49402L17.2249 2.39302ZM18.0479 3.05702C17.9192 2.92498 17.7865 2.79692 17.6499 2.67302C17.5241 2.55761 17.3806 2.46308 17.2249 2.39302L16.7479 3.49302C16.789 3.51563 16.8267 3.54391 16.8599 3.57702C16.9399 3.64702 17.0399 3.74602 17.1989 3.90502L18.0479 3.05702ZM18.9409 3.95002L18.0479 3.05702L17.1989 3.90502L18.0919 4.79902L18.9409 3.95002ZM19.6049 4.77302C19.5348 4.61733 19.4403 4.47384 19.3249 4.34802C19.201 4.21146 19.073 4.07873 18.9409 3.95002L18.0919 4.79902C18.2519 4.95902 18.3519 5.05802 18.4219 5.13902C18.4542 5.17206 18.4818 5.20941 18.5039 5.25002L19.6049 4.77302ZM19.6609 5.89602C19.7787 5.52724 19.7588 5.12825 19.6049 4.77302L18.5039 5.25002C18.5421 5.33903 18.5477 5.43887 18.5179 5.53102L19.6609 5.89602ZM19.0819 6.78102C19.2009 6.64034 19.3149 6.49559 19.4239 6.34702C19.5179 6.21502 19.6059 6.06902 19.6609 5.89602L18.5179 5.53102C18.5 5.57414 18.4761 5.61454 18.4469 5.65102C18.3526 5.77723 18.2545 5.90061 18.1529 6.02102L19.0819 6.78102ZM18.3919 7.72002C18.3899 7.72502 18.3959 7.67202 18.5179 7.49702C18.6369 7.32702 18.8149 7.10802 19.0819 6.78102L18.1539 6.02202C17.8989 6.33402 17.6839 6.59302 17.5329 6.81202C17.3839 7.02602 17.2399 7.27302 17.2019 7.56002L18.3919 7.72002ZM18.5449 8.09002C18.489 8.04735 18.4453 7.99067 18.4182 7.9257C18.3912 7.86074 18.3828 7.78979 18.3919 7.72002L17.2019 7.56002C17.1644 7.83989 17.2007 8.12469 17.3088 8.38551C17.417 8.64633 17.5923 8.87387 17.8169 9.04502L18.5449 8.09002ZM19.6969 8.26602C19.2769 8.22402 18.9969 8.19602 18.7919 8.15902C18.5819 8.12102 18.5399 8.08602 18.5449 8.09002L17.8169 9.04502C18.0469 9.22003 18.3229 9.29303 18.5799 9.34002C18.8419 9.38702 19.1779 9.42002 19.5779 9.46002L19.6969 8.26602ZM20.7319 8.48203C20.579 8.40609 20.4149 8.35511 20.2459 8.33102C20.0919 8.30502 19.9059 8.28702 19.6969 8.26602L19.5779 9.46002C19.8039 9.48203 19.9419 9.49702 20.0469 9.51402C20.1469 9.53102 20.1749 9.54403 20.1819 9.54803L20.7319 8.48203ZM21.4869 9.31602C21.3445 8.9558 21.0762 8.65947 20.7319 8.48203L20.1819 9.54803C20.2682 9.59246 20.3353 9.66674 20.3709 9.75702L21.4869 9.31602ZM21.5989 10.367C21.5989 10.157 21.5989 9.97102 21.5889 9.81502C21.5819 9.64397 21.5474 9.47516 21.4869 9.31502L20.3709 9.75702C20.384 9.80186 20.3907 9.84832 20.3909 9.89503C20.3989 10.001 20.3989 10.141 20.3989 10.367H21.5989ZM21.5989 11.631V10.367H20.3989V11.631H21.5989ZM21.4869 12.682C21.5539 12.512 21.5779 12.345 21.5889 12.183C21.5989 12.028 21.5989 11.841 21.5989 11.631H20.3989C20.3989 11.857 20.3989 11.997 20.3919 12.103C20.3914 12.1498 20.3843 12.1962 20.3709 12.241L21.4869 12.682ZM20.7319 13.516C21.0762 13.3386 21.3445 13.0423 21.4869 12.682L20.3709 12.241C20.3349 12.3306 20.2678 12.4051 20.1819 12.449L20.7319 13.516ZM19.6969 13.732C19.9082 13.7134 20.0912 13.6917 20.2459 13.667C20.4059 13.64 20.5709 13.6 20.7329 13.517L20.1819 12.449C20.1388 12.4669 20.0933 12.4787 20.0469 12.484C19.8908 12.5067 19.7341 12.5247 19.5769 12.538L19.6969 13.732ZM18.5449 13.907C18.5409 13.911 18.5819 13.877 18.7929 13.839C18.9969 18.803 19.2769 13.774 19.6969 13.732L19.5769 12.538C19.1769 12.578 18.8419 12.611 18.5799 12.658C18.3239 12.704 18.0479 12.778 17.8179 12.953L18.5449 13.907ZM18.3909 14.279C18.3814 14.2089 18.3906 14.1376 18.4177 14.0722C18.4447 14.0069 18.4886 13.9499 18.5449 13.907L17.8179 12.953C17.5932 13.1243 17.4178 13.352 17.3096 13.613C17.2014 13.874 17.1642 14.159 17.2019 14.439L18.3909 14.279ZM19.0819 15.217C18.8859 14.985 18.6981 14.7462 18.5189 14.501C18.3969 14.326 18.3909 14.273 18.3909 14.278L17.2019 14.438C17.2409 14.725 17.3849 14.972 17.5329 15.186C17.6849 15.404 17.8989 15.666 18.1529 15.976L19.0819 15.217ZM19.6619 16.101C19.6071 15.9393 19.5267 15.7874 19.4239 15.651C19.3339 15.523 19.2149 15.379 19.0819 15.217L18.1539 15.977C18.2969 16.151 18.3849 16.26 18.4469 16.347C18.4761 16.3835 18.501 16.4239 18.5189 16.467L19.6619 16.101ZM19.6049 17.225C19.7591 16.8695 19.779 16.4701 19.6609 16.101L18.5179 16.466C18.5474 16.5583 18.5424 16.6581 18.5039 16.747L19.6049 17.225ZM18.9409 18.047C19.0899 17.899 19.2209 17.767 19.3249 17.649C19.4402 17.5235 19.5347 17.3804 19.6049 17.225L18.5039 16.747C18.4813 16.7881 18.454 16.8258 18.4209 16.859C18.3509 16.939 18.2519 17.039 18.0929 17.199L18.9409 18.047ZM18.0479 18.941L18.9409 18.047L18.0929 17.199L17.1989 18.092L18.0479 18.941ZM17.2259 19.605C17.3929 19.532 17.5279 19.431 17.6499 19.325C17.7669 19.221 17.8999 19.089 18.0479 18.941L17.1989 18.092C17.0389 18.252 16.9399 18.351 16.8589 18.421C16.8259 18.4537 16.7886 18.4816 16.7479 18.504L17.2259 19.605ZM16.1019 19.661C16.4707 19.7788 16.8707 19.7589 17.2259 19.605L16.7479 18.504C16.659 18.5426 16.5592 18.5475 16.4669 18.518L16.1019 19.661ZM15.2169 19.081C15.3799 19.215 15.5239 19.333 15.6509 19.424C15.7829 19.518 15.9289 19.605 16.1019 19.661L16.4669 18.518C16.4238 18.5001 16.3834 18.4762 16.3469 18.447C16.2207 18.3527 16.0973 18.2546 15.9769 18.153L15.2169 19.081ZM14.2789 18.391C14.2729 18.39 14.3259 18.396 14.5009 18.518C14.6709 18.636 14.8899 18.814 15.2169 19.082L15.9769 18.153C15.6649 17.898 15.4049 17.684 15.1859 17.533C14.9719 17.383 14.7259 17.24 14.4379 17.201L14.2789 18.391ZM13.9069 18.545C13.9498 18.4888 14.0068 18.4449 14.0721 18.4178C14.1375 18.3908 14.2088 18.3815 14.2789 18.391L14.4389 17.201C14.1589 17.1634 13.8739 17.2005 13.6129 17.3087C13.3519 17.4169 13.1241 17.5923 12.9529 17.817L13.9069 18.545ZM13.7319 19.697C13.7739 19.277 13.8019 18.997 13.8389 18.792C13.8769 18.582 13.9109 18.54 13.9069 18.545L12.9529 17.817C12.7779 18.047 12.7049 18.323 12.6579 18.579C12.6109 18.841 12.5789 19.177 12.5389 19.578L13.7319 19.697ZM13.5159 20.733C13.5999 20.57 13.6399 20.406 13.6669 20.246C13.6929 20.092 13.7109 19.906 13.7319 19.697L12.5379 19.577C12.5245 19.7342 12.5065 19.8909 12.4839 20.047C12.4789 20.0934 12.4675 20.1388 12.4499 20.182L13.5159 20.733ZM12.6829 21.487C13.0426 21.3447 13.3385 21.0768 13.5159 20.733L12.4499 20.183C12.4053 20.2689 12.331 20.3357 12.2409 20.371L12.6829 21.487ZM11.6309 21.599C11.8409 21.599 12.0269 21.599 12.1829 21.589C12.3449 21.579 12.5129 21.554 12.6829 21.487L12.2409 20.371C12.1961 20.3841 12.1496 20.3908 12.1029 20.391C11.9457 20.3983 11.7883 20.401 11.6309 20.399V21.599ZM10.3669 21.599H11.6309V20.399H10.3669V21.599ZM9.3159 21.487C9.4859 21.554 9.6529 21.578 9.8149 21.589C9.9699 21.599 10.1569 21.599 10.3669 21.599V20.399C10.1409 20.399 10.0009 20.399 9.8949 20.392C9.84815 20.3915 9.80169 20.3854 9.7569 20.372L9.3159 21.487ZM8.4819 20.732C8.65935 21.0763 8.95568 21.3446 9.3159 21.487L9.7559 20.371C9.66636 20.3351 9.59285 20.2679 9.5489 20.182L8.4819 20.732ZM8.2659 19.697C8.28457 19.9084 8.30624 20.0914 8.3309 20.246C8.3579 20.406 8.3979 20.57 8.4819 20.732L9.5489 20.182C9.53133 20.1388 9.51889 20.0934 9.5139 20.047C9.49127 19.8909 9.47327 19.7342 9.4599 19.577L8.2659 19.697ZM8.0909 18.545C8.0869 18.54 8.1209 18.582 8.1589 18.792C8.1949 18.997 8.2239 19.277 8.2659 19.697L9.4599 19.577C9.4199 19.177 9.3869 18.842 9.3399 18.58C9.2929 18.323 9.2199 18.047 9.0449 17.817L8.0909 18.545ZM7.7199 18.391C7.78967 18.3819 7.86062 18.3913 7.92558 18.4183C7.99054 18.4454 8.04822 18.4891 8.0909 18.545L9.0449 17.817C8.87363 17.5926 8.64604 17.4175 8.38523 17.3095C8.12442 17.2015 7.83968 17.1644 7.5599 17.202L7.7199 18.391ZM6.7809 19.082C7.1079 18.815 7.3259 18.637 7.4969 18.518C7.6719 18.396 7.7249 18.39 7.7199 18.391L7.5599 17.202C7.2729 17.242 7.0259 17.384 6.8119 17.533C6.5929 17.685 6.3319 17.899 6.0219 18.153L6.7809 19.082ZM5.8959 19.661C6.05793 19.6066 6.21019 19.5266 6.3469 19.424C6.49546 19.3151 6.64022 19.201 6.7809 19.082L6.0209 18.154C5.90048 18.2553 5.77709 18.353 5.6509 18.447C5.61441 18.4762 5.57402 18.5001 5.5309 18.518L5.8959 19.661ZM4.7729 19.605C5.12813 19.7589 5.52712 19.7788 5.8959 19.661L5.5309 18.518C5.43894 18.5473 5.33949 18.5423 5.2509 18.504L4.7729 19.605ZM3.9499 18.941C4.0989 19.089 4.2299 19.221 4.3479 19.325C4.4699 19.431 4.6059 19.533 4.7729 19.605L5.2499 18.505C5.20881 18.4824 5.17111 18.4541 5.1379 18.421C5.02135 18.3147 4.90797 18.205 4.7979 18.092L3.9499 18.941ZM3.0569 18.048L3.9499 18.941L4.7979 18.092L3.9049 17.199L3.0569 18.048ZM2.3929 17.225C2.4649 17.392 2.5669 17.528 2.6729 17.65C2.7759 17.767 2.9079 17.9 3.0569 18.048L3.9049 17.199C3.79225 17.0889 3.68286 16.9756 3.5769 16.859C3.54422 16.8261 3.51628 16.7887 3.4939 16.748L2.3929 17.225ZM2.3369 16.102C2.21909 16.4708 2.23899 16.8698 2.3929 17.225L3.4939 16.748C3.45569 16.659 3.45007 16.5592 3.4799 16.467L2.3369 16.102ZM2.9159 15.217C2.79694 15.3577 2.68287 15.5025 2.5739 15.651C2.47141 15.7874 2.3914 15.9403 2.3369 16.102L3.4799 16.467C3.49785 16.4239 3.52175 16.3835 3.5509 16.347C3.6129 16.26 3.7009 16.152 3.8439 15.977L2.9159 15.217ZM3.6059 14.279C3.6079 14.273 3.6019 14.325 3.4799 14.501C3.3609 14.671 3.1829 14.89 2.9159 15.217L3.8439 15.977C4.0989 15.665 4.3139 15.405 4.4649 15.186C4.6139 14.972 4.7579 14.725 4.7959 14.438L3.6059 14.279ZM3.4529 13.907C3.50917 13.9499 3.55306 14.0069 3.58012 14.0722C3.60717 14.1376 3.61541 14.2089 3.6059 14.279L4.7969 14.439C4.83458 14.159 4.79743 13.874 4.68923 13.613C4.58103 13.352 4.40564 13.1243 4.1809 12.953L3.4529 13.907ZM2.3009 13.733C2.7209 13.775 3.0009 13.802 3.2059 13.839C3.4159 13.877 3.4579 13.911 3.4529 13.907L4.1809 12.953C3.9509 12.778 3.6749 12.705 3.4179 12.658C3.1559 12.611 2.8209 12.578 2.4199 12.538L2.3009 13.733ZM1.2659 13.516C1.4279 13.6 1.5919 13.64 1.7519 13.667C1.9059 13.693 2.0919 13.712 2.3009 13.733L2.4199 12.538C2.26274 12.5247 2.107 12.5067 1.9509 12.484C1.90454 12.479 1.8601 12.4676 1.8169 12.45L1.2659 13.516ZM0.510902 12.682C0.652902 13.042 0.920902 13.338 1.2659 13.516L1.8169 12.45C1.73064 12.4056 1.66247 12.3313 1.6269 12.241L0.510902 12.682ZM0.399902 11.632C0.399902 11.842 0.399902 12.028 0.409902 12.184C0.419902 12.346 0.444902 12.514 0.511902 12.684L1.6279 12.242C1.61482 12.1972 1.60809 12.1507 1.6079 12.104C1.60059 11.9468 1.59793 11.7894 1.5999 11.632H0.399902ZM0.399902 10.368V11.632H1.5999V10.368H0.399902ZM0.511902 9.31703C0.444902 9.48703 0.420902 9.65403 0.409902 9.81602C0.399902 9.97102 0.399902 10.158 0.399902 10.368H1.5999C1.5999 10.142 1.5999 10.002 1.6069 9.89602C1.6139 9.79602 1.6249 9.76603 1.6279 9.75803L0.511902 9.31703ZM1.2659 8.48302C0.921954 8.66066 0.65407 8.95697 0.511902 9.31703L1.6279 9.75702C1.66387 9.66749 1.731 9.59397 1.8169 9.55002L1.2659 8.48302ZM2.3009 8.26702C2.08957 8.28569 1.90757 8.30736 1.7529 8.33202C1.5929 8.35902 1.4289 8.39902 1.2659 8.48302L1.8159 9.54902C1.85941 9.53136 1.9052 9.51992 1.9519 9.51503C2.108 9.4924 2.26374 9.47439 2.4209 9.46103L2.3009 8.26702ZM3.4539 8.09202C3.4589 8.08802 3.4179 8.12202 3.2069 8.15902C3.0019 8.19602 2.7209 8.22502 2.3009 8.26702L2.4209 9.46103C2.8209 9.42103 3.1579 9.38802 3.4199 9.34102C3.6759 9.29402 3.9519 9.22102 4.1819 9.04602L3.4539 8.09202ZM3.6079 7.72102C3.61704 7.79079 3.60762 7.86174 3.58058 7.9267C3.55354 7.99166 3.50985 8.04835 3.4539 8.09102L4.1819 9.04602C4.40648 8.87487 4.58177 8.64733 4.68996 8.38651C4.79815 8.12569 4.83539 7.84089 4.7979 7.56102L3.6079 7.72102ZM2.9169 6.78102C3.1849 7.10902 3.3619 7.32702 3.4809 7.49802C3.6029 7.67302 3.6089 7.72602 3.6079 7.72102L4.7979 7.56102C4.7589 7.27402 4.6149 7.02702 4.4669 6.81302C4.3149 6.59402 4.1009 6.33302 3.8459 6.02202L2.9169 6.78102ZM2.3369 5.89702C2.3929 6.07002 2.4809 6.21602 2.5749 6.34702C2.6649 6.47502 2.7839 6.61802 2.9169 6.78102L3.8459 6.02202C3.74428 5.90161 3.64624 5.77823 3.5519 5.65202C3.52275 5.61554 3.49885 5.57514 3.4809 5.53202L2.3369 5.89702ZM2.3939 4.77402C2.23999 5.12926 2.22009 5.52824 2.3379 5.89702L3.4809 5.53202C3.45139 5.43975 3.45636 5.33991 3.4949 5.25102L2.3939 4.77402ZM3.0579 3.95102C2.9099 4.09902 2.7779 4.23102 2.6739 4.34902C2.55849 4.47484 2.46396 4.61833 2.3939 4.77402L3.4949 5.25102C3.51751 5.20994 3.54479 5.17223 3.5779 5.13902C3.6479 5.05902 3.7469 4.95902 3.9069 4.79902L3.0579 3.95102ZM3.9509 3.05802L3.0579 3.95102L3.9069 4.79902L4.7999 3.90602L3.9509 3.05802ZM4.7739 2.39302C4.61814 2.46339 4.47465 2.55826 4.3489 2.67402C4.21233 2.79792 4.0796 2.92598 3.9509 3.05802L4.7999 3.90602C4.9599 3.74602 5.0589 3.64702 5.1399 3.57702C5.17287 3.54434 5.21023 3.5164 5.2509 3.49402L4.7739 2.39302ZM5.8969 2.33702C5.52812 2.21921 5.12913 2.23911 4.7739 2.39302L5.2509 3.49402C5.33978 3.45548 5.43963 3.45051 5.5319 3.48002L5.8969 2.33702ZM6.7819 2.91702C6.64123 2.79772 6.49648 2.68332 6.3479 2.57402C6.2115 2.47154 6.05858 2.39153 5.8969 2.33702L5.5319 3.48002C5.57508 3.49828 5.61448 3.52252 5.6509 3.55202C5.7379 3.61402 5.8459 3.70202 6.0209 3.84502L6.7819 2.91702ZM7.7209 3.60702C7.7259 3.60802 7.6729 3.60202 7.4979 3.48002C7.3279 3.36202 7.1089 3.18402 6.7819 2.91602L6.0219 3.84602C6.3339 4.10002 6.5939 4.31402 6.8129 4.46602C7.0269 4.61402 7.2729 4.75802 7.5599 4.79602L7.7209 3.60702ZM8.0919 3.45402C8.04902 3.50995 7.99213 3.55355 7.92698 3.58042C7.86183 3.60728 7.79074 3.61646 7.7209 3.60702L7.5609 4.79702C7.84077 4.83451 8.12557 4.79727 8.38639 4.68908C8.64721 4.58089 8.87475 4.40561 9.0459 4.18102L8.0919 3.45402ZM8.2669 2.30202C8.2249 2.72202 8.1969 3.00202 8.1599 3.20602C8.1219 3.41602 8.0879 3.45802 8.0919 3.45402L9.0459 4.18102C9.2219 3.95102 9.2939 3.67502 9.3409 3.41902C9.3879 3.15702 9.4209 2.82102 9.4609 2.42102L8.2669 2.30202ZM8.4829 1.26702C8.40696 1.41993 8.35598 1.58401 8.3319 1.75302C8.3059 1.90702 8.2879 2.09302 8.2669 2.30202L9.4609 2.42102C9.47427 2.26386 9.49227 2.10712 9.5149 1.95102C9.51998 1.905 9.53142 1.8599 9.5489 1.81702L8.4829 1.26702ZM9.3169 0.512024C8.95668 0.654439 8.66035 0.9227 8.4829 1.26702L9.5489 1.81702C9.59334 1.73076 9.66762 1.66359 9.7579 1.62802L9.3169 0.512024ZM10.3679 0.400024C10.1579 0.400024 9.9719 0.400024 9.8159 0.410024C9.6539 0.420024 9.4859 0.445024 9.3159 0.512024L9.7579 1.62802C9.80274 1.61494 9.84919 1.60821 9.8959 1.60802C10.0019 1.60002 10.1419 1.60002 10.3679 1.60002V0.400024ZM11.6319 0.400024H10.3679V1.60002H11.6319V0.400024ZM12.6829 0.512024C12.5231 0.451599 12.3546 0.417163 12.1839 0.410024C12.0289 0.400024 11.8419 0.400024 11.6319 0.400024V1.60002C11.8579 1.60002 11.9979 1.60002 12.1039 1.60702C12.2039 1.61402 12.2339 1.62502 12.2419 1.62802L12.6829 0.512024ZM13.5169 1.26702C13.3395 0.9227 13.0431 0.654439 12.6829 0.512024L12.2429 1.62802C12.3324 1.66399 12.406 1.73112 12.4499 1.81702L13.5169 1.26702ZM14.3999 11C14.3999 11.9018 14.0417 12.7666 13.4041 13.4042C12.7664 14.0418 11.9016 14.4 10.9999 14.4V15.6C12.2199 15.6 13.3899 15.1154 14.2526 14.2527C15.1153 13.39 15.5999 12.22 15.5999 11H14.3999ZM10.9999 7.60002C11.9016 7.60002 12.7664 7.95824 13.4041 8.59586C14.0417 9.23349 14.3999 10.0983 14.3999 11H15.5999C15.5999 9.78003 15.1153 8.61 14.2526 7.74733C13.3899 6.88467 12.2199 6.40002 10.9999 6.40002V7.60002ZM7.5999 11C7.5999 10.0983 7.95812 9.23349 8.59574 8.59586C9.23336 7.95824 10.0982 7.60002 10.9999 7.60002V6.40002C9.77991 6.40002 8.60988 6.88467 7.74721 7.74733C6.88454 8.61 6.3999 9.78003 6.3999 11H7.5999ZM10.9999 14.4C10.0982 14.4 9.23336 14.0418 8.59574 13.4042C7.95812 12.7666 7.5999 11.9018 7.5999 11H6.3999C6.3999 12.22 6.88454 13.39 7.74721 14.2527C8.60988 15.1154 9.77991 15.6 10.9999 15.6V14.4Z"
        fill="white"
    />
</svg>