<svg width="18" height="18" viewBox="0 0 20 20" fill="none" xmlns="http://www.w3.org/2000/svg">
    <path
        d="M5.12821 4.4186C5.12821 3.24672 5.64148 2.12283 6.55512 1.29418C7.46876 0.46553 8.70792 0 10 0C11.2921 0 12.5312 0.46553 13.4449 1.29418C14.3585 2.12283 14.8718 3.24672 14.8718 4.4186C14.8718 5.59049 14.3585 6.71438 13.4449 7.54303C12.5312 8.37168 11.2921 8.83721 10 8.83721C8.70792 8.83721 7.46876 8.37168 6.55512 7.54303C5.64148 6.71438 5.12821 5.59049 5.12821 4.4186ZM0 19.3023C0 14.293 4.47692 10.2326 10 10.2326C15.5231 10.2326 20 14.293 20 19.3023C20 19.4874 19.919 19.6648 19.7747 19.7957C19.6304 19.9265 19.4348 20 19.2308 20H0.769231C0.565218 20 0.369561 19.9265 0.225302 19.7957C0.0810436 19.6648 0 19.4874 0 19.3023Z"
        fill="#030712"
    />
</svg>