<svg width="24" height="24" viewBox="0 0 20 20" fill="none" xmlns="http://www.w3.org/2000/svg">
    <path
      fill-rule="evenodd"
      clip-rule="evenodd"
      d="M5.41602 5.50963C5.41602 3.19426 7.42961 1.25 9.9992 1.25C12.5688 1.25 14.5824 3.19426 14.5824 5.50963C14.5824 7.82501 12.5688 9.76926 9.9992 9.76926C7.42961 9.76926 5.41602 7.82501 5.41602 5.50963ZM9.9992 0C6.81599 0 4.16602 2.42959 4.16602 5.50963C4.16602 8.58967 6.81599 11.0193 9.9992 11.0193C13.1824 11.0193 15.8324 8.58967 15.8324 5.50963C15.8324 2.42959 13.1824 0 9.9992 0ZM0 17.6307C0 14.1655 1.83118 11.128 4.57865 9.43312C4.88667 9.74366 5.23235 10.0273 5.60985 10.2792C3.01182 11.7011 1.25 14.4602 1.25 17.6307V18.3769C1.25 18.584 1.41789 18.7519 1.625 18.7519H18.3745C18.5816 18.7519 18.7495 18.584 18.7495 18.3769V17.6307C18.7495 14.4602 16.9877 11.7012 14.3897 10.2792C14.7672 10.0273 15.1129 9.74371 15.4209 9.43317C18.1683 11.1281 19.9995 14.1656 19.9995 17.6307V18.3769C19.9995 19.2744 19.2719 20.0019 18.3745 20.0019H1.625C0.727538 20.0019 0 19.2744 0 18.3769V17.6307Z"
      fill="white"
    />
  </svg>