<svg xmlns="http://www.w3.org/2000/svg" width="24" height="24" fill="none" viewBox="0 0 20 20"><path fill="#fff" d="M13.092 11.144a.747.747 0 0 0-.748-.747h-.468a.747.747 0 1 0 0 1.493h.468a.747.747 0 0 0 .748-.746ZM9.062 10.397a.747.747 0 1 1 0 1.493h-.469a.747.747 0 1 1 0-1.493h.47ZM16.374 11.144a.747.747 0 0 0-.748-.747h-.468a.747.747 0 1 0 0 1.493h.468a.747.747 0 0 0 .748-.746Z"/><path fill="#fff" fill-rule="evenodd" d="M15.626 0c.344 0 .623.278.623.622v4.41h3.128c.344 0 .623.279.623.622v10.98a.622.622 0 0 1-.623.621H12.03v2.123a.622.622 0 0 1-1.022.477l-3.109-2.6H4.374a.622.622 0 0 1-.623-.622v-5.935l-1.543 1.368a.623.623 0 0 1-1.036-.465V9.936h-.55A.622.622 0 0 1 0 9.314V.622C0 .278.279 0 .623 0h15.003ZM3.751 9.034l-1.333 1.183v-.903a.622.622 0 0 0-.623-.622h-.55V1.244h13.759v3.788H4.374a.622.622 0 0 0-.623.618v3.384Zm11.876-2.758h3.128v9.735h-7.348a.622.622 0 0 0-.623.622v1.413l-2.26-1.89a.623.623 0 0 0-.4-.145H4.997V6.276h10.631Z" clip-rule="evenodd"/></svg>