<svg xmlns="http://www.w3.org/2000/svg" width="20" height="20" fill="none" class="oz"><path fill="#F37C25" d="m9.8 4.142.108-.944H20v.944l-.32.017a3923.023 3923.023 0 0 0-6.022.324 437.1 437.1 0 0 1-1.361.074l-.234.012a16.64 16.64 0 0 0-1.511.162l.228.177c.288.275.393.453.577.804.155.244.155.244.376.435.267.04.267.04.572-.01l.376-.044.448-.064.262-.038c.82-.118 1.637-.245 2.455-.374l.939-.145.286-.046a9.088 9.088 0 0 1 1.64-.105c-.163.587-.383 1.126-.624 1.678l-.122.283-.387.892-.252.58-.504 1.163c-.41.944-.817 1.889-1.224 2.834l.407-.113c.385-.108.77-.19 1.163-.255l.347-.06c.663-.085.663-.085.982-.044.255.233.255.233.49.546l.248.325.228.309.329.412c.208.295.208.295.208.531a582.642 582.642 0 0 1-7.373 1.326c-.341.058-.655.09-1.001.09.232-.841.547-1.594.912-2.374l.345-.749.177-.384c.282-.619.555-1.242.827-1.867l.147-.338c.247-.569.479-1.138.705-1.718l-2.04.117.108.472c.108 2.167-.253 3.946-1.577 5.639-1.222 1.395-2.686 2.122-4.436 2.263-1.847.02-3.578-.586-4.945-1.99C.637 13.43-.021 11.705 0 9.71c.156-1.996.931-3.642 2.284-4.98.687-.584 1.43-1 2.255-1.297l.217-.08c1.68-.514 3.556-.145 5.043.788ZM3.573 7.798c-.557.964-.774 1.876-.598 3.006.26 1.126.863 1.922 1.761 2.519.845.493 1.859.516 2.786.303a3.956 3.956 0 0 0 2.124-1.973c.35-.988.427-2.063.087-3.074-.457-1.078-1.188-1.745-2.199-2.175-1.518-.476-2.95.087-3.96 1.394Z"/></svg>