<svg xmlns="http://www.w3.org/2000/svg" width="20" height="20" fill="none" class="python"><path fill="url(#a)" d="M9.928 0c-5.077 0-4.76 2.213-4.76 2.213l.006 2.294h4.845v.688h-6.77S0 4.824 0 9.975c0 5.149 2.836 4.967 2.836 4.967h1.692v-2.39s-.091-2.85 2.79-2.85h4.806s2.7.043 2.7-2.624v-4.41S15.234 0 9.928 0ZM7.256 1.542c.482 0 .872.392.872.876a.874.874 0 0 1-1.489.62.876.876 0 0 1-.255-.62c0-.484.39-.876.872-.876Z"/><path fill="url(#b)" d="M10.072 20c5.077 0 4.76-2.214 4.76-2.214l-.006-2.293H9.981v-.688h6.77s3.249.37 3.249-4.78-2.836-4.966-2.836-4.966h-1.692v2.389s.091 2.85-2.79 2.85H7.875s-2.7-.043-2.7 2.623v4.41S4.766 20 10.072 20Zm2.672-1.542a.866.866 0 0 1-.806-.54.874.874 0 0 1 .806-1.211c.482-.001.872.39.872.874 0 .486-.39.877-.872.877Z"/><defs><linearGradient id="a" x1="1.922" x2="11.863" y1="1.748" y2="11.67" gradientUnits="userSpaceOnUse"><stop stop-color="#387EB8"/><stop offset="1" stop-color="#366994"/></linearGradient><linearGradient id="b" x1="8.006" x2="18.68" y1="8.093" y2="18.266" gradientUnits="userSpaceOnUse"><stop stop-color="#FFE052"/><stop offset="1" stop-color="#FFC331"/></linearGradient></defs></svg>