<svg xmlns="http://www.w3.org/2000/svg" width="24" height="24" fill="none" viewBox="0 0 22 22"><path fill="#fff" d="m19.638 13.136-.06-.597-.02.002-.018.003.098.592Zm0 0 .06.597.02-.002.02-.003-.1-.592Zm-4.04 5.482.38-.464-.005-.004-.375.468Zm0 0-.38.465.005.004.375-.469Zm-9.196 0-.38-.463-.01.007-.01.008.4.448Zm0 0 .38.465.01-.007.009-.009-.4-.449ZM2.36 8.864v-.6h-.03l-.03.003.06.597Zm0 0v.6h.03l.03-.003-.06-.597Zm11.372-6.563a8.073 8.073 0 0 0-.066-.549 1.602 1.602 0 0 0-.151-.486l-1.066.551a.493.493 0 0 1 .034.134c.017.105.032.244.054.47l1.195-.12Zm.174 1.152c.004.005-.03-.037-.067-.247a12.97 12.97 0 0 1-.107-.905l-1.195.12c.04.4.073.735.12.997.047.257.12.533.295.763l.954-.728Zm.372.154a.4.4 0 0 1-.372-.154l-.954.728a1.6 1.6 0 0 0 1.485.615l-.16-1.189Zm.938-.691c-.232.196-.47.384-.716.564-.176.122-.228.128-.223.127l.16 1.189c.287-.04.534-.182.748-.331.219-.152.48-.366.79-.62l-.76-.929Zm.885-.58a1.6 1.6 0 0 0-.451.238 7.993 7.993 0 0 0-.434.342l.759.929c.12-.102.245-.2.37-.294a.5.5 0 0 1 .12-.071l-.364-1.144Zm1.123.057a1.6 1.6 0 0 0-1.123-.057l.365 1.144a.4.4 0 0 1 .28.014l.478-1.101Zm.823.664a8.99 8.99 0 0 0-.398-.384 1.6 1.6 0 0 0-.425-.28l-.477 1.1a.5.5 0 0 1 .112.084c.08.07.18.169.339.328l.849-.848Zm.893.893-.893-.893-.85.848.894.894.849-.849Zm.664.823c-.07-.156-.165-.3-.28-.425a8.983 8.983 0 0 0-.384-.398l-.85.849c.16.16.26.259.33.34.033.033.06.07.083.111l1.1-.477Zm.056 1.123a1.6 1.6 0 0 0-.056-1.123l-1.101.477a.4.4 0 0 1 .014.281l1.143.365Zm-.58.885c.12-.14.234-.285.343-.434.094-.132.182-.278.237-.451l-1.143-.365a.497.497 0 0 1-.071.12c-.094.126-.192.25-.294.37l.929.76Zm-.69.939c-.001.005.005-.048.127-.223.119-.17.297-.389.564-.716l-.928-.759c-.255.312-.47.571-.621.79-.15.214-.293.461-.331.748l1.19.16Zm.154.37a.4.4 0 0 1-.153-.37l-1.19-.16a1.6 1.6 0 0 0 .615 1.485l.728-.955Zm1.152.176c-.42-.042-.7-.07-.905-.107-.21-.038-.252-.073-.247-.069l-.728.955c.23.175.506.248.763.295.262.047.598.08.998.12l.119-1.194Zm1.035.216a1.6 1.6 0 0 0-.486-.151c-.154-.026-.34-.044-.55-.065l-.118 1.194c.226.022.364.037.469.054.1.017.128.03.135.034l.55-1.066Zm.755.834a1.6 1.6 0 0 0-.755-.834l-.55 1.066a.4.4 0 0 1 .189.209l1.116-.441Zm.112 1.051c0-.21 0-.396-.01-.552a1.6 1.6 0 0 0-.102-.5l-1.116.442a.5.5 0 0 1 .02.138c.008.106.008.246.008.472h1.2Zm0 1.264v-1.264h-1.2v1.264h1.2Zm-.112 1.051c.067-.17.09-.337.102-.499.01-.155.01-.342.01-.552h-1.2c0 .226 0 .366-.007.472a.5.5 0 0 1-.021.138l1.116.441Zm-.755.834a1.6 1.6 0 0 0 .755-.834l-1.116-.441a.402.402 0 0 1-.19.208l.55 1.067Zm-1.035.216a7.97 7.97 0 0 0 .549-.065c.16-.027.325-.067.487-.15l-.551-1.068a.5.5 0 0 1-.135.035c-.156.023-.313.04-.47.054l.12 1.194Zm-1.152.175c-.004.004.037-.03.248-.068.204 4.964.484-.065.904-.107l-.12-1.194c-.4.04-.735.073-.997.12-.256.046-.532.12-.762.295l.727.954Zm-.154.372a.4.4 0 0 1 .154-.372l-.727-.954a1.6 1.6 0 0 0-.616 1.486l1.189-.16Zm.69.938c-.195-.232-.383-.47-.562-.716-.122-.175-.128-.228-.128-.223l-1.19.16c.04.287.184.534.332.748.152.218.366.48.62.79l.929-.759Zm.58.884a1.602 1.602 0 0 0-.237-.45c-.09-.128-.21-.272-.342-.434l-.928.76c.143.174.23.283.293.37.03.037.054.077.072.12l1.143-.366Zm-.056 1.124a1.6 1.6 0 0 0 .056-1.124l-1.143.365a.4.4 0 0 1-.014.281l1.1.478Zm-.664.822c.149-.148.28-.28.384-.398a1.6 1.6 0 0 0 .28-.424l-1.101-.478a.495.495 0 0 1-.083.112c-.07.08-.17.18-.328.34l.848.848Zm-.893.894.893-.894-.848-.848-.894.893.849.849Zm-.822.664c.167-.073.302-.174.424-.28.117-.104.25-.236.398-.384l-.85-.849c-.16.16-.258.259-.34.329a.5.5 0 0 1-.11.083l.478 1.101Zm-1.124.056c.369.118.769.098 1.124-.056l-.478-1.101a.4.4 0 0 1-.281.014l-.365 1.143Zm-.885-.58c.163.134.307.252.434.343.132.094.278.181.45.237l.366-1.143a.498.498 0 0 1-.12-.071 7.986 7.986 0 0 1-.37-.294l-.76.928Zm-.938-.69c-.006-.001.047.005.222.127.17.118.389.296.716.564l.76-.929c-.312-.255-.572-.469-.791-.62-.214-.15-.46-.293-.748-.332l-.16 1.19Zm-.372.154a.401.401 0 0 1 .372-.154l.16-1.19a1.6 1.6 0 0 0-1.486.616l.954.728Zm-.175 1.152c.042-.42.07-.7.107-.905.038-.21.072-.252.068-.247l-.954-.728c-.175.23-.248.506-.295.762-.047.262-.08.598-.12.999l1.194.119Zm-.216 1.036c.084-.163.124-.327.15-.487.027-.154.045-.34.066-.549l-1.194-.12a8.054 8.054 0 0 1-.054.47.5.5 0 0 1-.034.135l1.066.551Zm-.833.754a1.6 1.6 0 0 0 .833-.754l-1.066-.55a.4.4 0 0 1-.21.188l.443 1.116Zm-1.052.112c.21 0 .396 0 .552-.01.162-.01.33-.035.5-.102l-.442-1.116a.5.5 0 0 1-.138.02c-.157.007-.315.01-.472.008v1.2Zm-1.264 0h1.264v-1.2h-1.264v1.2Zm-1.051-.112c.17.067.337.091.499.102.155.01.342.01.552.01v-1.2c-.226 0-.366 0-.472-.007a.5.5 0 0 1-.138-.02l-.441 1.115Zm-.834-.755a1.6 1.6 0 0 0 .834.755l.44-1.116a.4.4 0 0 1-.207-.189l-1.067.55Zm-.216-1.035c.019.211.04.394.065.549.027.16.067.324.15.486l1.068-.55a.502.502 0 0 1-.035-.135 8.002 8.002 0 0 1-.054-.47l-1.194.12Zm-.175-1.152c-.004-.005.03.037.068.247.036.205.065.485.107.905l1.194-.12c-.04-.4-.073-.735-.12-.997-.047-.257-.12-.533-.295-.763l-.954.728Zm-.371-.154a.4.4 0 0 1 .37.154l.955-.728a1.6 1.6 0 0 0-1.485-.615l.16 1.189Zm-.94.691c.328-.267.546-.445.717-.564.175-.122.228-.128.223-.127l-.16-1.189c-.287.04-.534.182-.748.331-.22.152-.48.366-.79.62l.759.929Zm-.884.579a1.6 1.6 0 0 0 .45-.237c.15-.109.294-.223.435-.342l-.76-.928c-.12.101-.244.199-.37.293a.497.497 0 0 1-.12.071l.365 1.143Zm-1.123-.056a1.6 1.6 0 0 0 1.123.056l-.365-1.143a.4.4 0 0 1-.28-.014l-.478 1.101Zm-.823-.664c.149.148.28.28.398.384.122.106.258.208.425.28l.477-1.1a.5.5 0 0 1-.112-.084 8.007 8.007 0 0 1-.34-.329l-.848.849Zm-.893-.893.893.893.848-.849-.893-.893-.848.849Zm-.664-.823c.072.167.174.303.28.425.103.117.235.25.384.398l.848-.849a7.977 7.977 0 0 1-.328-.34.498.498 0 0 1-.083-.111l-1.101.477Zm-.056-1.123a1.6 1.6 0 0 0 .056 1.123l1.1-.477a.4.4 0 0 1-.013-.281l-1.143-.365Zm.579-.885c-.12.14-.233.285-.342.434-.103.136-.183.29-.237.451l1.143.365a.5.5 0 0 1 .07-.12c.063-.087.15-.195.294-.37l-.928-.76Zm.69-.938c.002-.006-.004.046-.126.222-.12.17-.297.389-.564.716l.928.76c.255-.312.47-.572.62-.791.15-.214.294-.461.332-.748l-1.19-.159Zm-.153-.372a.4.4 0 0 1 .153.372l1.19.16a1.6 1.6 0 0 0-.615-1.486l-.728.954ZM2.3 13.733c.42.042.7.069.905.106.21.038.252.072.247.068l.728-.954c-.23-.175-.506-.248-.763-.295-.262-.047-.597-.08-.998-.12l-.12 1.195Zm-1.035-.217c.162.084.326.124.486.151.154.026.34.045.549.066l.119-1.195a7.855 7.855 0 0 1-.47-.054.493.493 0 0 1-.133-.034l-.551 1.066Zm-.755-.834c.142.36.41.656.755.834l.55-1.066a.402.402 0 0 1-.19-.209l-1.115.441ZM.4 11.632c0 .21 0 .396.01.552.01.162.035.33.102.5l1.116-.442a.5.5 0 0 1-.02-.138 8.005 8.005 0 0 1-.008-.472H.4Zm0-1.264v1.264h1.2v-1.264H.4Zm.112-1.051c-.067.17-.091.337-.102.499-.01.155-.01.342-.01.552h1.2c0-.226 0-.366.007-.472a.5.5 0 0 1 .02-.138L.513 9.317Zm.754-.834a1.6 1.6 0 0 0-.754.834l1.116.44a.4.4 0 0 1 .189-.207l-.551-1.067ZM2.3 8.267c-.211.019-.393.04-.548.065-.16.027-.324.067-.487.151l.55 1.066a.5.5 0 0 1 .136-.034c.156-.023.312-.04.469-.054L2.3 8.267Zm1.153-.175c.005-.004-.036.03-.247.067-.205.037-.486.066-.906.108l.12 1.194c.4-.04.737-.073.999-.12.256-.047.532-.12.762-.295l-.728-.954Zm.154-.371a.4.4 0 0 1-.154.37l.728.955a1.6 1.6 0 0 0 .616-1.485l-1.19.16Zm-.691-.94c.268.328.445.546.564.717.122.175.128.228.127.223l1.19-.16c-.04-.287-.183-.534-.331-.748-.152-.219-.366-.48-.621-.791l-.93.759Zm-.58-.884c.056.173.144.319.238.45.09.128.209.271.342.434l.929-.759a8 8 0 0 1-.294-.37.5.5 0 0 1-.071-.12l-1.144.365Zm.057-1.123a1.6 1.6 0 0 0-.056 1.123l1.143-.365a.4.4 0 0 1 .014-.281l-1.101-.477Zm.664-.823c-.148.148-.28.28-.384.398a1.6 1.6 0 0 0-.28.425l1.1.477a.496.496 0 0 1 .084-.112c.07-.08.169-.18.329-.34l-.85-.848Zm.893-.893-.893.893.849.848.893-.893-.85-.848Zm.823-.665a1.6 1.6 0 0 0-.425.281c-.137.124-.27.252-.398.384l.849.848c.16-.16.259-.259.34-.329a.5.5 0 0 1 .11-.083l-.476-1.101Zm1.123-.056a1.6 1.6 0 0 0-1.123.056l.477 1.101a.4.4 0 0 1 .28-.014l.366-1.143Zm.885.58a8.002 8.002 0 0 0-.434-.343 1.606 1.606 0 0 0-.451-.237L5.532 3.48a.494.494 0 0 1 .119.072c.087.062.195.15.37.293l.76-.928Zm.939.69c.005.001-.048-.005-.223-.127-.17-.118-.39-.296-.716-.564l-.76.93c.312.254.572.468.79.62.215.148.46.292.748.33l.16-1.189Zm.37-.153a.4.4 0 0 1-.37.153l-.16 1.19a1.6 1.6 0 0 0 1.485-.616l-.954-.727Zm.176-1.152c-.042.42-.07.7-.107.904-.038.21-.072.252-.068.248l.954.727c.176-.23.248-.506.295-.762.047-.262.08-.598.12-.998l-1.194-.119Zm.216-1.035a1.6 1.6 0 0 0-.151.486c-.026.154-.044.34-.065.549l1.194.119c.013-.157.031-.314.054-.47a.5.5 0 0 1 .034-.134l-1.066-.55Zm.834-.755a1.6 1.6 0 0 0-.834.755l1.066.55a.4.4 0 0 1 .209-.189L9.317.512ZM10.367.4c-.21 0-.395 0-.551.01-.162.01-.33.035-.5.102l.442 1.116a.5.5 0 0 1 .138-.02c.106-.008.246-.008.472-.008V.4Zm1.265 0h-1.264v1.2h1.264V.4Zm1.05.112a1.6 1.6 0 0 0-.498-.102C12.029.4 11.842.4 11.632.4v1.2c.226 0 .366 0 .472.007.1.007.13.018.138.021l.44-1.116Zm.835.755a1.6 1.6 0 0 0-.834-.755l-.44 1.116a.4.4 0 0 1 .207.189l1.067-.55ZM14.4 11a3.4 3.4 0 0 1-3.4 3.4v1.2a4.6 4.6 0 0 0 4.6-4.6h-1.2ZM11 7.6a3.4 3.4 0 0 1 3.4 3.4h1.2A4.6 4.6 0 0 0 11 6.4v1.2ZM7.6 11A3.4 3.4 0 0 1 11 7.6V6.4A4.6 4.6 0 0 0 6.4 11h1.2Zm3.4 3.4A3.4 3.4 0 0 1 7.6 11H6.4a4.6 4.6 0 0 0 4.6 4.6v-1.2Z"/></svg>