<svg xmlns="http://www.w3.org/2000/svg" width="24" height="24" fill="none" viewBox="0 0 20 20"><path fill="#fff" fill-rule="evenodd" d="M5.416 5.51c0-2.316 2.014-4.26 4.583-4.26 2.57 0 4.583 1.944 4.583 4.26 0 2.315-2.013 4.26-4.583 4.26-2.57 0-4.583-1.945-4.583-4.26ZM9.999 0C6.816 0 4.166 2.43 4.166 5.51c0 3.08 2.65 5.51 5.833 5.51 3.183 0 5.833-2.43 5.833-5.51C15.832 2.43 13.182 0 10 0ZM0 17.63a9.619 9.619 0 0 1 4.579-8.197c.308.31.653.594 1.03.846a8.373 8.373 0 0 0-4.359 7.352v.746c0 .207.168.375.375.375h16.75a.375.375 0 0 0 .375-.375v-.746c0-3.17-1.762-5.93-4.36-7.352a6.649 6.649 0 0 0 1.03-.846A9.62 9.62 0 0 1 20 17.631v.746c0 .897-.728 1.625-1.625 1.625H1.625A1.625 1.625 0 0 1 0 18.377v-.746Z" clip-rule="evenodd"/></svg>