<svg xmlns="http://www.w3.org/2000/svg" width="18" height="18" fill="none" viewBox="0 0 20 20"><path fill="#030712" d="M5.128 4.419c0-1.172.513-2.296 1.427-3.125C7.47.466 8.708 0 10 0c1.292 0 2.531.466 3.445 1.294.913.829 1.427 1.953 1.427 3.125 0 1.171-.514 2.295-1.427 3.124-.914.829-2.153 1.294-3.445 1.294-1.292 0-2.531-.465-3.445-1.294-.914-.829-1.427-1.953-1.427-3.124ZM0 19.302c0-5.009 4.477-9.07 10-9.07s10 4.061 10 9.07a.666.666 0 0 1-.225.494.811.811 0 0 1-.544.204H.769a.811.811 0 0 1-.544-.204.667.667 0 0 1-.225-.494Z"/></svg>