<svg xmlns="http://www.w3.org/2000/svg" style="display: none;">
  <symbol id="icon-close" viewBox="0 0 16 16">
    <path fill="currentColor" d="M8.92472 7.99916L13.6122 2.41166C13.6908 2.31881 13.6247 2.17773 13.5033 2.17773H12.0783C11.9944 2.17773 11.914 2.21523 11.8587 2.27952L7.99258 6.88845L4.12651 2.27952C4.07294 2.21523 3.99258 2.17773 3.90687 2.17773H2.48187C2.36044 2.17773 2.29437 2.31881 2.37294 2.41166L7.06044 7.99916L2.37294 13.5867C2.35534 13.6074 2.34405 13.6327 2.3404 13.6596C2.33676 13.6865 2.34092 13.7139 2.35239 13.7386C2.36386 13.7632 2.38216 13.784 2.40511 13.7985C2.42806 13.8131 2.4547 13.8207 2.48187 13.8206H3.90687C3.9908 13.8206 4.07115 13.7831 4.12651 13.7188L7.99258 9.10988L11.8587 13.7188C11.9122 13.7831 11.9926 13.8206 12.0783 13.8206H13.5033C13.6247 13.8206 13.6908 13.6795 13.6122 13.5867L8.92472 7.99916Z"/>
  </symbol>
  <symbol id="icon-remove" viewBox="0 0 16 16">
    <path fill="currentColor" d="M8.92472 7.99916L13.6122 2.41166C13.6908 2.31881 13.6247 2.17773 13.5033 2.17773H12.0783C11.9944 2.17773 11.914 2.21523 11.8587 2.27952L7.99258 6.88845L4.12651 2.27952C4.07294 2.21523 3.99258 2.17773 3.90687 2.17773H2.48187C2.36044 2.17773 2.29437 2.31881 2.37294 2.41166L7.06044 7.99916L2.37294 13.5867C2.35534 13.6074 2.34405 13.6327 2.3404 13.6596C2.33676 13.6865 2.34092 13.7139 2.35239 13.7386C2.36386 13.7632 2.38216 13.784 2.40511 13.7985C2.42806 13.8131 2.4547 13.8207 2.48187 13.8206H3.90687C3.9908 13.8206 4.07115 13.7831 4.12651 13.7188L7.99258 9.10988L11.8587 13.7188C11.9122 13.7831 11.9926 13.8206 12.0783 13.8206H13.5033C13.6247 13.8206 13.6908 13.6795 13.6122 13.5867L8.92472 7.99916Z"/>
  </symbol>
  <symbol id="icon-add" viewBox="0 0 20 20">
    <path fill="currentColor" fill-rule="evenodd" d="M10 18a8 8 0 1 0 0-16 8 8 0 0 0 0 16Zm.75-11.25a.75.75 0 0 0-1.5 0v2.5h-2.5a.75.75 0 0 0 0 1.5h2.5v2.5a.75.75 0 0 0 1.5 0v-2.5h2.5a.75.75 0 0 0 0-1.5h-2.5v-2.5Z" clip-rule="evenodd"/>
  </symbol>
  <symbol id="icon-edit" viewBox="0 0 20 20">
    <path fill="currentColor" d="M5.433 13.917l1.262-3.155A4 4 0 0 1 7.58 9.42l6.92-6.918a2.121 2.121 0 0 1 3 3l-6.92 6.918c-.383.383-.84.685-1.343.886l-3.154 1.262a.5.5 0 0 1-.65-.65Z"/>
    <path fill="currentColor" d="M3.5 5.75c0-.69.56-1.25 1.25-1.25H10A.75.75 0 0 0 10 3H4.75A2.75 2.75 0 0 0 2 5.75v9.5A2.75 2.75 0 0 0 4.75 18h9.5A2.75 2.75 0 0 0 17 15.25V10a.75.75 0 0 0-1.5 0v5.25c0 .69-.56 1.25-1.25 1.25h-9.5c-.69 0-1.25-.56-1.25-1.25v-9.5Z"/>
  </symbol>
  <symbol id="icon-search" viewBox="0 0 20 20">
    <path fill="currentColor" fill-rule="evenodd" d="M9 3.5a5.5 5.5 0 1 0 0 11 5.5 5.5 0 0 0 0-11ZM2 9a7 7 0 1 1 12.452 4.391l3.328 3.329a.75.75 0 1 1-1.06 1.06l-3.329-3.328A7 7 0 0 1 2 9Z" clip-rule="evenodd"/>
  </symbol>
  <symbol id="icon-save" viewBox="0 0 20 20">
    <path fill="currentColor" fill-rule="evenodd" d="M10 18a8 8 0 1 0 0-16 8 8 0 0 0 0 16Zm3.857-9.809a.75.75 0 0 0-1.214-.882l-3.483 4.79-1.88-1.88a.75.75 0 1 0-1.06 1.061l2.5 2.5a.75.75 0 0 0 1.137-.089l4-5.5Z" clip-rule="evenodd"/>
  </symbol>
  <symbol id="icon-upload" viewBox="0 0 20 20">
    <path fill="currentColor" d="M10.75 2.75a.75.75 0 0 0-1.5 0v8.614L6.295 8.235a.75.75 0 1 0-1.09 1.03l4.25 4.5a.75.75 0 0 0 1.09 0l4.25-4.5a.75.75 0 0 0-1.09-1.03l-2.955 3.129V2.75Z"/>
    <path fill="currentColor" d="M3.5 12.75a.75.75 0 0 0-1.5 0v2.5A2.75 2.75 0 0 0 4.75 18h10.5A2.75 2.75 0 0 0 18 15.25v-2.5a.75.75 0 0 0-1.5 0v2.5c0 .69-.56 1.25-1.25 1.25H4.75c-.69 0-1.25-.56-1.25-1.25v-2.5Z"/>
  </symbol>
  <symbol id="icon-download" viewBox="0 0 20 20">
    <path fill="currentColor" d="M10.75 2.75a.75.75 0 0 0-1.5 0v8.614L6.295 8.235a.75.75 0 1 0-1.09 1.03l4.25 4.5a.75.75 0 0 0 1.09 0l4.25-4.5a.75.75 0 0 0-1.09-1.03l-2.955 3.129V2.75Z"/>
    <path fill="currentColor" d="M3.5 12.75a.75.75 0 0 0-1.5 0v2.5A2.75 2.75 0 0 0 4.75 18h10.5A2.75 2.75 0 0 0 18 15.25v-2.5a.75.75 0 0 0-1.5 0v2.5c0 .69-.56 1.25-1.25 1.25H4.75c-.69 0-1.25-.56-1.25-1.25v-2.5Z"/>
  </symbol>
  <symbol id="icon-info" viewBox="0 0 20 20">
    <path fill="currentColor" fill-rule="evenodd" d="M18 10a8 8 0 1 1-16 0 8 8 0 0 1 16 0Zm-7-4a1 1 0 1 1-2 0 1 1 0 0 1 2 0ZM9 9a.75.75 0 0 0 0 1.5h.253a.25.25 0 0 1 .244.304l-.459 2.066A1.75 1.75 0 0 0 10.747 15H11a.75.75 0 0 0 0-1.5h-.253a.25.25 0 0 1-.244-.304l.459-2.066A1.75 1.75 0 0 0 9.253 9H9Z" clip-rule="evenodd"/>
  </symbol>
  <symbol id="icon-warning" viewBox="0 0 20 20">
    <path fill="currentColor" fill-rule="evenodd" d="M8.485 2.495c.673-1.167 2.357-1.167 3.03 0l6.28 10.875c.673 1.167-.17 2.625-1.516 2.625H3.72c-1.347 0-2.189-1.458-1.515-2.625l6.28-10.875ZM10 15a1 1 0 1 1 0-2 1 1 0 0 1 0 2ZM10 7a1 1 0 0 1 1 1v4a1 1 0 1 1-2 0V8a1 1 0 0 1 1-1Z" clip-rule="evenodd"/>
  </symbol>
  <symbol id="icon-check" viewBox="0 0 20 20">
    <path fill="currentColor" fill-rule="evenodd" d="M16.704 4.153a.75.75 0 0 1 .143 1.052l-8 10.5a.75.75 0 0 1-1.127.075l-4.5-4.5a.75.75 0 0 1 1.06-1.06l3.894 3.893 7.48-9.817a.75.75 0 0 1 1.05-.143Z" clip-rule="evenodd"/>
  </symbol>
  <symbol id="icon-calendar" viewBox="0 0 20 20">
    <path fill="currentColor" fill-rule="evenodd" d="M5.75 2a.75.75 0 0 1 .75.75V4h7V2.75a.75.75 0 0 1 1.5 0V4h.25A2.75 2.75 0 0 1 18 6.75v8.5A2.75 2.75 0 0 1 15.25 18H4.75A2.75 2.75 0 0 1 2 15.25v-8.5A2.75 2.75 0 0 1 4.75 4H5V2.75A.75.75 0 0 1 5.75 2Zm-1 5.5c-.69 0-1.25.56-1.25 1.25v6.5c0 .69.56 1.25 1.25 1.25h10.5c.69 0 1.25-.56 1.25-1.25v-6.5c0-.69-.56-1.25-1.25-1.25H4.75Z" clip-rule="evenodd"/>
  </symbol>
  <symbol id="icon-user" viewBox="0 0 20 20">
    <path fill="currentColor" d="M10 8a3 3 0 1 0 0-6 3 3 0 0 0 0 6ZM3.465 14.493a1.25 1.25 0 0 0 .41 1.412A9.957 9.957 0 0 0 10 18c2.31 0 4.438-.784 6.131-2.095a1.25 1.25 0 0 0 .41-1.412A9.99 9.99 0 0 0 10 12.75a9.99 9.99 0 0 0-6.535 1.743Z"/>
  </symbol>
  <symbol id="icon-settings" viewBox="0 0 20 20">
    <path fill="currentColor" fill-rule="evenodd" d="M7.857 1.82a.75.75 0 0 1 .884-.597l.448.113A8.949 8.949 0 0 1 10 1.5c.415 0 .823.027 1.224.078l.448-.113a.75.75 0 0 1 .884.597l.21.84a8.95 8.95 0 0 1 1.188.75l.7-.524a.75.75 0 0 1 .966.29l.405.7a.75.75 0 0 1-.121.996l-.67.67a8.91 8.91 0 0 1 .002 1.318l.67.67a.75.75 0 0 1 .121.996l-.405.7a.75.75 0 0 1-.966.29l-.7-.524a8.95 8.95 0 0 1-1.188-.75l-.21-.84a.75.75 0 0 1-.884.597l-.448-.113A8.949 8.949 0 0 1 10 18.5c-.415 0-.823-.027-1.224-.078l-.448.113a.75.75 0 0 1-.884-.597l-.21-.84a8.95 8.95 0 0 1-1.188-.75l-.7.524a.75.75 0 0 1-.966-.29l-.405-.7a.75.75 0 0 1 .121-.996l.67-.67a8.91 8.91 0 0 1-.002-1.318l-.67-.67a.75.75 0 0 1-.121-.996l.405-.7a.75.75 0 0 1 .966-.29l.7.524a8.95 8.95 0 0 1 1.188-.75l.21-.84ZM10 13a3 3 0 1 0 0-6 3 3 0 0 0 0 6Z" clip-rule="evenodd"/>
  </symbol>
  <symbol id="icon-uploadCloud" viewBox="0 0 24 24">
    <path stroke="currentColor" fill="none" stroke-linecap="round" stroke-linejoin="round" stroke-width="1.5" d="M12 16.5V9.75m0 0l3 3m-3-3l-3 3M6.75 19.5a4.5 4.5 0 01-1.41-8.775 5.25 5.25 0 0110.233-2.33 3 3 0 013.758 3.848A3.752 3.752 0 0118 19.5H6.75z"/>
  </symbol>
  <symbol id="icon-arrowLeft" viewBox="0 0 24 24">
    <path stroke="currentColor" fill="none" stroke-linecap="round" stroke-linejoin="round" stroke-width="1.5" d="M10.5 19.5L3 12m0 0l7.5-7.5M3 12h18"/>
  </symbol>
  <symbol id="icon-arrowRight" viewBox="0 0 24 24">
    <path stroke="currentColor" fill="none" stroke-linecap="round" stroke-linejoin="round" stroke-width="1.5" d="M13.5 4.5L21 12m0 0l-7.5 7.5M21 12H3"/>
  </symbol>
  <symbol id="icon-chevron-right" viewBox="0 0 16 16">
  <path fill-rule="evenodd" d="M6.22 3.22a.75.75 0 0 1 1.06 0l4.25 4.25a.75.75 0 0 1 0 1.06l-4.25 4.25a.75.75 0 0 1-1.06-1.06L9.94 8 6.22 4.28a.75.75 0 0 1 0-1.06Z" clip-rule="evenodd"/>
</symbol>
<symbol id="icon-chevron-down" viewBox="0 0 16 16">
  <path fill-rule="evenodd" d="M3.22 6.22a.75.75 0 0 1 1.06 0L8 9.94l3.72-3.72a.75.75 0 1 1 1.06 1.06l-4.25 4.25a.75.75 0 0 1-1.06 0L3.22 7.28a.75.75 0 0 1 0-1.06Z" clip-rule="evenodd"/>
</symbol>
  <symbol id="icon-chevron-up" viewBox="0 0 24 24">
    <path stroke="currentColor" fill="none" stroke-linecap="round" stroke-linejoin="round" stroke-width="1.5" d="M4.5 15.75l7.5-7.5 7.5 7.5"/>
  </symbol>
  <symbol id="icon-externalLink" viewBox="0 0 24 24">
    <path stroke="currentColor" fill="none" stroke-linecap="round" stroke-linejoin="round" stroke-width="1.5" d="M13.5 6H5.25A2.25 2.25 0 003 8.25v10.5A2.25 2.25 0 005.25 21h10.5A2.25 2.25 0 0018 18.75V10.5m-10.5 6L21 3m0 0h-5.25M21 3v5.25"/>
  </symbol>
  <symbol id="icon-filter" viewBox="0 0 24 24">
    <path stroke="currentColor" fill="none" stroke-linecap="round" stroke-linejoin="round" stroke-width="1.5" d="M12 3c2.755 0 5.455.232 8.083.678.533.09.917.556.917 1.096v1.044a2.25 2.25 0 01-.659 1.591l-5.432 5.432a2.25 2.25 0 00-.659 1.591v2.927a2.25 2.25 0 01-1.244 2.013L9.75 21v-6.568a2.25 2.25 0 00-.659-1.591L3.659 7.409A2.25 2.25 0 013 5.818V4.774c0-.54.384-1.006.917-1.096A48.32 48.32 0 0112 3z"/>
  </symbol>
  <symbol id="icon-menu" viewBox="0 0 24 24">
    <path stroke="currentColor" fill="none" stroke-linecap="round" stroke-linejoin="round" stroke-width="1.5" d="M3.75 6.75h16.5M3.75 12h16.5m-16.5 5.25h16.5"/>
  </symbol>
  <symbol id="icon-minus" viewBox="0 0 24 24">
    <path stroke="currentColor" fill="none" stroke-linecap="round" stroke-linejoin="round" stroke-width="1.5" d="M19.5 12h-15"/>
  </symbol>
  <symbol id="icon-plus" viewBox="0 0 24 24">
    <path stroke="currentColor" fill="none" stroke-linecap="round" stroke-linejoin="round" stroke-width="1.5" d="M12 4.5v15m7.5-7.5h-15"/>
  </symbol>
  <symbol id="icon-trash" viewBox="0 0 24 24">
    <path stroke="currentColor" fill="none" stroke-linecap="round" stroke-linejoin="round" stroke-width="1.5" d="M14.74 9l-.346 9m-4.788 0L9.26 9m9.968-3.21c.342.052.682.107 1.022.166m-1.022-.165L18.16 19.673a2.25 2.25 0 01-2.244 2.077H8.084a2.25 2.25 0 01-2.244-2.077L4.772 5.79m14.456 0a48.108 48.108 0 00-3.478-.397m-12.56 0c1.153 0 2.24.032 3.22.096M15 5.25a3 3 0 11-6 0 3 3 0 016 0zm6 0a1.5 1.5 0 11-3 0 1.5 1.5 0 013 0z"/>
  </symbol>
  <symbol id="icon-community" viewBox="0 0 20 20">
    <path fill="currentColor" d="M13.092 11.144a.747.747 0 0 0-.748-.747h-.468a.747.747 0 1 0 0 1.493h.468a.747.747 0 0 0 .748-.746ZM9.062 10.397a.747.747 0 1 1 0 1.493h-.469a.747.747 0 1 1 0-1.493h.47ZM16.374 11.144a.747.747 0 0 0-.748-.747h-.468a.747.747 0 1 0 0 1.493h.468a.747.747 0 0 0 .748-.746Z"/>
    <path fill="currentColor" fill-rule="evenodd" d="M15.626 0c.344 0 .623.278.623.622v4.41h3.128c.344 0 .623.279.623.622v10.98a.622.622 0 0 1-.623.621H12.03v2.123a.622.622 0 0 1-1.022.477l-3.109-2.6H4.374a.622.622 0 0 1-.623-.622v-5.935l-1.543 1.368a.623.623 0 0 1-1.036-.465V9.936h-.55A.622.622 0 0 1 0 9.314V.622C0 .278.279 0 .623 0h15.003ZM3.751 9.034l-1.333 1.183v-.903a.622.622 0 0 0-.623-.622h-.55V1.244h13.759v3.788H4.374a.622.622 0 0 0-.623.618v3.384Zm11.876-2.758h3.128v9.735h-7.348a.622.622 0 0 0-.623.622v1.413l-2.26-1.89a.623.623 0 0 0-.4-.145H4.997V6.276h10.631Z" clip-rule="evenodd"/>
  </symbol>
  <symbol id="icon-oz-report" viewBox="0 0 20 20">
    <path fill="#F37C25" d="m9.8 4.142.108-.944H20v.944l-.32.017a3923.023 3923.023 0 0 0-6.022.324 437.1 437.1 0 0 1-1.361.074l-.234.012a16.64 16.64 0 0 0-1.511.162l.228.177c.288.275.393.453.577.804.155.244.155.244.376.435.267.04.267.04.572-.01l.376-.044.448-.064.262-.038c.82-.118 1.637-.245 2.455-.374l.939-.145.286-.046a9.088 9.088 0 0 1 1.64-.105c-.163.587-.383 1.126-.624 1.678l-.122.283-.387.892-.252.58-.504 1.163c-.41.944-.817 1.889-1.224 2.834l.407-.113c.385-.108.77-.19 1.163-.255l.347-.06c.663-.085.663-.085.982-.044.255.233.255.233.49.546l.248.325.228.309.329.412c.208.295.208.295.208.531a582.642 582.642 0 0 1-7.373 1.326c-.341.058-.655.09-1.001.09.232-.841.547-1.594.912-2.374l.345-.749.177-.384c.282-.619.555-1.242.827-1.867l.147-.338c.247-.569.479-1.138.705-1.718l-2.04.117.108.472c.108 2.167-.253 3.946-1.577 5.639-1.222 1.395-2.686 2.122-4.436 2.263-1.847.02-3.578-.586-4.945-1.99C.637 13.43-.021 11.705 0 9.71c.156-1.996.931-3.642 2.284-4.98.687-.584 1.43-1 2.255-1.297l.217-.08c1.68-.514 3.556-.145 5.043.788ZM3.573 7.798c-.557.964-.774 1.876-.598 3.006.26 1.126.863 1.922 1.761 2.519.845.493 1.859.516 2.786.303a3.956 3.956 0 0 0 2.124-1.973c.35-.988.427-2.063.087-3.074-.457-1.078-1.188-1.745-2.199-2.175-1.518-.476-2.95.087-3.96 1.394Z"/>
  </symbol>
  <symbol id="icon-folder" viewBox="0 0 20 20">
    <path fill="#3b82f6" d="M0 16.833A1.167 1.167 0 0 0 1.167 18h17.666A1.167 1.167 0 0 0 20 16.833V8H0v8.833ZM20 4.5a1.167 1.167 0 0 0-1.167-1.167H8.202L6.202 2H1.167A1.167 1.167 0 0 0 0 3.167v3.5h20V4.5Z"/>
  </symbol>
  <symbol id="icon-dashboard" viewBox="0 0 20 20">
    <path fill="#77D7C7" d="M10 .714A.714.714 0 0 1 10.714 0 9.286 9.286 0 0 1 20 9.286a.714.714 0 0 1-.714.714h-8.572A.714.714 0 0 1 10 9.286V.714ZM8.572 3.603a.715.715 0 0 0-.779-.712 8.571 8.571 0 1 0 9.314 9.315.715.715 0 0 0-.71-.778H8.572V3.603Z"/>
  </symbol>
  <symbol id="icon-python" viewBox="0 0 20 20"> <!-- sprite에서 gradient 정보 확인못해서 단색으로 바꿈 -->
    <path fill="#366994" d="M9.928 0c-5.077 0-4.76 2.213-4.76 2.213l.006 2.294h4.845v.688h-6.77S0 4.824 0 9.975c0 5.149 2.836 4.967 2.836 4.967h1.692v-2.39s-.091-2.85 2.79-2.85h4.806s2.7.043 2.7-2.624v-4.41S15.234 0 9.928 0ZM7.256 1.542c.482 0 .872.392.872.876a.874.874 0 0 1-1.489.62.876.876 0 0 1-.255-.62c0-.484.39-.876.872-.876Z"/>
    <path fill="#FFC331" d="M10.072 20c5.077 0 4.76-2.214 4.76-2.214l-.006-2.293H9.981v-.688h6.77s3.249.37 3.249-4.78-2.836-4.966-2.836-4.966h-1.692v2.389s.091 2.85-2.79 2.85H7.875s-2.7-.043-2.7 2.623v4.41S4.766 20 10.072 20Zm2.672-1.542a.866.866 0 0 1-.806-.54.874.874 0 0 1 .806-1.211c.482-.001.872.39.872.874 0 .486-.39.877-.872.877Z"/>
    </symbol>
  <symbol id="icon-admin" viewBox="0 0 22 22"> <!-- 설정 아이콘 -->
    <path fill="currentColor" d="m19.638 13.136-.06-.597-.02.002-.018.003.098.592Zm0 0 .06.597.02-.002.02-.003-.1-.592Zm-4.04 5.482.38-.464-.005-.004-.375.468Zm0 0-.38.465.005.004.375-.469Zm-9.196 0-.38-.463-.01.007-.01.008.4.448Zm0 0 .38.465.01-.007.009-.009-.4-.449ZM2.36 8.864v-.6h-.03l-.03.003.06.597Zm0 0v.6h.03l.03-.003-.06-.597Zm11.372-6.563a8.073 8.073 0 0 0-.066-.549 1.602 1.602 0 0 0-.151-.486l-1.066.551a.493.493 0 0 1 .034.134c.017.105.032.244.054.47l1.195-.12Zm.174 1.152c.004.005-.03-.037-.067-.247a12.97 12.97 0 0 1-.107-.905l-1.195.12c.04.4.073.735.12.997.047.257.12.533.295.763l.954-.728Zm.372.154a.4.4 0 0 1-.372-.154l-.954.728a1.6 1.6 0 0 0 1.485.615l-.16-1.189Zm.938-.691c-.232.196-.47.384-.716.564-.176.122-.228.128-.223.127l.16 1.189c.287-.04.534-.182.748-.331.219-.152.48-.366.79-.62l-.76-.929Zm.885-.58a1.6 1.6 0 0 0-.451.238 7.993 7.993 0 0 0-.434.342l.759.929c.12-.102.245-.2.37-.294a.5.5 0 0 1 .12-.071l-.364-1.144Zm1.123.057a1.6 1.6 0 0 0-1.123-.057l.365 1.144a.4.4 0 0 1 .28.014l.478-1.101Zm.823.664a8.99 8.99 0 0 0-.398-.384 1.6 1.6 0 0 0-.425-.28l-.477 1.1a.5.5 0 0 1 .112.084c.08.07.18.169.339.328l.849-.848Zm.893.893-.893-.893-.85.848.894.894.849-.849Zm.664.823c-.07-.156-.165-.3-.28-.425a8.983 8.983 0 0 0-.384-.398l-.85.849c.16.16.26.259.33.34.033.033.06.07.083.111l1.1-.477Zm.056 1.123a1.6 1.6 0 0 0-.056-1.123l-1.101.477a.4.4 0 0 1 .014.281l1.143.365Zm-.58.885c.12-.14.234-.285.343-.434.094-.132.182-.278.237-.451l-1.143-.365a.497.497 0 0 1-.071.12c-.094.126-.192.25-.294.37l.929.76Zm-.69.939c-.001.005.005-.048.127-.223.119-.17.297-.389.564-.716l-.928-.759c-.255.312-.47.571-.621.79-.15.214-.293.461-.331.748l1.19.16Zm.154.37a.4.4 0 0 1-.153-.37l-1.19-.16a1.6 1.6 0 0 0 .615 1.485l.728-.955Zm1.152.176c-.42-.042-.7-.07-.905-.107-.21-.038-.252-.073-.247-.069l-.728.955c.23.175.506.248.763.295.262.047.598.08.998.12l.119-1.194Zm1.035.216a1.6 1.6 0 0 0-.486-.151c-.154-.026-.34-.044-.55-.065l-.118 1.194c.226.022.364.037.469.054.1.017.128.03.135.034l.55-1.066Zm.755.834a1.6 1.6 0 0 0-.755-.834l-.55 1.066a.4.4 0 0 1 .189.209l1.116-.441Zm.112 1.051c0-.21 0-.396-.01-.552a1.6 1.6 0 0 0-.102-.5l-1.116.442a.5.5 0 0 1 .02.138c.008.106.008.246.008.472h1.2Zm0 1.264v-1.264h-1.2v1.264h1.2Zm-.112 1.051c.067-.17.09-.337.102-.499.01-.155.01-.342.01-.552h-1.2c0 .226 0 .366-.007.472a.5.5 0 0 1-.021.138l1.116.441Zm-.755.834a1.6 1.6 0 0 0 .755-.834l-1.116-.441a.402.402 0 0 1-.19.208l.55 1.067Zm-1.035.216a7.97 7.97 0 0 0 .549-.065c.16-.027.325-.067.487-.15l-.551-1.068a.5.5 0 0 1-.135.035c-.156.023-.313.04-.47.054l.12 1.194Zm-1.152.175c-.004.004.037-.03.248-.068.204 4.964.484-.065.904-.107l-.12-1.194c-.4.04-.735.073-.997.12-.256.046-.532.12-.762.295l.727.954Zm-.154.372a.4.4 0 0 1 .154-.372l-.727-.954a1.6 1.6 0 0 0-.616 1.486l1.189-.16Zm.69.938c-.195-.232-.383-.47-.562-.716-.122-.175-.128-.228-.128-.223l-1.19.16c.04.287.184.534.332.748.152.218.366.48.62.79l.929-.759Zm.58.884a1.602 1.602 0 0 0-.237-.45c-.09-.128-.21-.272-.342-.434l-.928.76c.143.174.23.283.293.37.03.037.054.077.072.12l1.143-.366Zm-.056 1.124a1.6 1.6 0 0 0 .056-1.124l-1.143.365a.4.4 0 0 1-.014.281l1.1.478Zm-.664.822c.149-.148.28-.28.384-.398a1.6 1.6 0 0 0 .28-.424l-1.101-.478a.495.495 0 0 1-.083.112c-.07.08-.17.18-.328.34l.848.848Zm-.893.894.893-.894-.848-.848-.894.893.849.849Zm-.822.664c.167-.073.302-.174.424-.28.117-.104.25-.236.398-.384l-.85-.849c-.16.16-.258.259-.34.329a.5.5 0 0 1-.11.083l.478 1.101Zm-1.124.056c.369.118.769.098 1.124-.056l-.478-1.101a.4.4 0 0 1-.281.014l-.365 1.143Zm-.885-.58c.163.134.307.252.434.343.132.094.278.181.45.237l.366-1.143a.498.498 0 0 1-.12-.071 7.986 7.986 0 0 1-.37-.294l-.76.928Zm-.938-.69c-.006-.001.047.005.222.127.17.118.389.296.716.564l.76-.929c-.312-.255-.572-.469-.791-.62-.214-.15-.46-.293-.748-.332l-.16 1.19Zm-.372.154a.401.401 0 0 1 .372-.154l.16-1.19a1.6 1.6 0 0 0-1.486.616l.954.728Zm-.175 1.152c.042-.42.07-.7.107-.905.038-.21.072-.252.068-.247l-.954-.728c-.175.23-.248.506-.295.762-.047.262-.08.598-.12.999l1.194.119Zm-.216 1.036c.084-.163.124-.327.15-.487.027-.154.045-.34.066-.549l-1.194-.12a8.054 8.054 0 0 1-.054.47.5.5 0 0 1-.034.135l1.066.551Zm-.833.754a1.6 1.6 0 0 0 .833-.754l-1.066-.55a.4.4 0 0 1-.21.188l.443 1.116Zm-1.052.112c.21 0 .396 0 .552-.01.162-.01.33-.035.5-.102l-.442-1.116a.5.5 0 0 1-.138.02c-.157.007-.315.01-.472.008v1.2Zm-1.264 0h1.264v-1.2h-1.264v1.2Zm-1.051-.112c.17.067.337.091.499.102.155.01.342.01.552.01v-1.2c-.226 0-.366 0-.472-.007a.5.5 0 0 1-.138-.02l-.441 1.115Zm-.834-.755a1.6 1.6 0 0 0 .834.755l.44-1.116a.4.4 0 0 1-.207-.189l-1.067.55Zm-.216-1.035c.019.211.04.394.065.549.027.16.067.324.15.486l1.068-.55a.502.502 0 0 1-.035-.135 8.002 8.002 0 0 1-.054-.47l-1.194.12Zm-.175-1.152c-.004-.005.03.037.068.247.036.205.065.485.107.905l1.194-.12c-.04-.4-.073-.735-.12-.997-.047-.257-.12-.533-.295-.763l-.954.728Zm-.371-.154a.4.4 0 0 1 .37.154l.955-.728a1.6 1.6 0 0 0-1.485-.615l.16 1.189Zm-.94.691c.328-.267.546-.445.717-.564.175-.122.228-.128.223-.127l-.16-1.189c-.287.04-.534.182-.748.331-.22.152-.48.366-.79.62l.759.929Zm-.884.579a1.6 1.6 0 0 0 .45-.237c.15-.109.294-.223.435-.342l-.76-.928c-.12.101-.244.199-.37.293a.497.497 0 0 1-.12.071l.365 1.143Zm-1.123-.056a1.6 1.6 0 0 0 1.123.056l-.365-1.143a.4.4 0 0 1-.28-.014l-.478 1.101Zm-.823-.664c.149.148.28.28.398.384.122.106.258.208.425.28l.477-1.1a.5.5 0 0 1-.112-.084 8.007 8.007 0 0 1-.34-.329l-.848.849Zm-.893-.893.893.893.848-.849-.893-.893-.848.849Zm-.664-.823c.072.167.174.303.28.425.103.117.235.25.384.398l.848-.849a7.977 7.977 0 0 1-.328-.34.498.498 0 0 1-.083-.111l-1.101.477Zm-.056-1.123a1.6 1.6 0 0 0 .056 1.123l1.1-.477a.4.4 0 0 1-.013-.281l-1.143-.365Zm.579-.885c-.12.14-.233.285-.342.434-.103.136-.183.29-.237.451l1.143.365a.5.5 0 0 1 .07-.12c.063-.087.15-.195.294-.37l-.928-.76Zm.69-.938c.002-.006-.004.046-.126.222-.12.17-.297.389-.564.716l.928.76c.255-.312.47-.572.62-.791.15-.214.294-.461.332-.748l-1.19-.159Zm-.153-.372a.4.4 0 0 1 .153.372l1.19.16a1.6 1.6 0 0 0-.615-1.486l-.728.954ZM2.3 13.733c.42.042.7.069.905.106.21.038.252.072.247.068l.728-.954c-.23-.175-.506-.248-.763-.295-.262-.047-.597-.08-.998-.12l-.12 1.195Zm-1.035-.217c.162.084.326.124.486.151.154.026.34.045.549.066l.119-1.195a7.855 7.855 0 0 1-.47-.054.493.493 0 0 1-.133-.034l-.551 1.066Zm-.755-.834c.142.36.41.656.755.834l.55-1.066a.402.402 0 0 1-.19-.209l-1.115.441ZM.4 11.632c0 .21 0 .396.01.552.01.162.035.33.102.5l1.116-.442a.5.5 0 0 1-.02-.138 8.005 8.005 0 0 1-.008-.472H.4Zm0-1.264v1.264h1.2v-1.264H.4Zm.112-1.051c-.067.17-.091.337-.102.499-.01.155-.01.342-.01.552h1.2c0-.226 0-.366.007.472a.5.5 0 0 1 .02-.138L.513 9.317Zm.754-.834a1.6 1.6 0 0 0-.754.834l1.116.44a.4.4 0 0 1 .189-.207l-.551-1.067ZM2.3 8.267c-.211.019-.393.04-.548.065-.16.027-.324.067-.487.151l.55 1.066a.5.5 0 0 1 .136-.034c.156-.023.312-.04.469-.054L2.3 8.267Zm1.153-.175c.005-.004-.036.03-.247.067-.205.037-.486.066-.906.108l.12 1.194c.4-.04.737-.073.999-.12.256-.047.532-.12.762-.295l-.728-.954Zm.154-.371a.4.4 0 0 1-.154.37l.728.955a1.6 1.6 0 0 0 .616-1.485l-1.19.16Zm-.691-.94c.268.328.445.546.564.717.122.175.128.228.127.223l1.19-.16c-.04-.287-.183-.534-.331-.748-.152-.219-.366-.48-.621-.791l-.93.759Zm-.58-.884c.056.173.144.319.238.45.09.128.209.271.342.434l.929-.759a8 8 0 0 1-.294-.37.5.5 0 0 1-.071-.12l-1.144.365Zm.057-1.123a1.6 1.6 0 0 0-.056 1.123l1.143-.365a.4.4 0 0 1 .014-.281l-1.101-.477Zm.664-.823c-.148.148-.28.28-.384.398a1.6 1.6 0 0 0-.28.425l1.1.477a.496.496 0 0 1 .084-.112c.07-.08.169-.18.329-.34l-.85-.848Zm.893-.893-.893.893.849.848.893-.893-.85-.848Zm.823-.665a1.6 1.6 0 0 0-.425.281c-.137.124-.27.252-.398.384l.849.848c.16-.16.259-.259.34-.329a.5.5 0 0 1 .11-.083l-.476-1.101Zm1.123-.056a1.6 1.6 0 0 0-1.123.056l.477 1.101a.4.4 0 0 1 .28-.014l.366-1.143Zm.885.58a8.002 8.002 0 0 0-.434-.343 1.606 1.606 0 0 0-.451-.237L5.532 3.48a.494.494 0 0 1 .119.072c.087.062.195.15.37.293l.76-.928Zm.939.69c.005.001-.048-.005-.223-.127-.17-.118-.39-.296-.716-.564l-.76.93c.312.254.572.468.79.62.215.148.46.292.748.33l.16-1.189Zm.37-.153a.4.4 0 0 1-.37.153l-.16 1.19a1.6 1.6 0 0 0 1.485-.616l-.954-.727Zm.176-1.152c-.042.42-.07.7-.107.904-.038.21-.072.252-.068.248l.954.727c.176-.23.248.506.295-.762.047-.262.08-.598.12-.998l-1.194-.119Zm.216-1.035a1.6 1.6 0 0 0-.151.486c-.026.154-.044.34-.065.549l1.194.119c.013-.157.031-.314.054-.47a.5.5 0 0 1 .034-.134l-1.066-.55Zm.834-.755a1.6 1.6 0 0 0-.834.755l1.066.55a.4.4 0 0 1 .209-.189L9.317.512ZM10.367.4c-.21 0-.395 0-.551.01-.162.01-.33.035-.5.102l.442 1.116a.5.5 0 0 1 .138-.02c.106-.008.246-.008.472-.008V.4Zm1.265 0h-1.264v1.2h1.264V.4Zm1.05.112a1.6 1.6 0 0 0-.498-.102C12.029.4 11.842.4 11.632.4v1.2c.226 0 .366 0 .472.007.1.007.13.018.138.021l.44-1.116Zm.835.755a1.6 1.6 0 0 0-.834-.755l-.44 1.116a.4.4 0 0 1 .207.189l1.067-.55ZM14.4 11a3.4 3.4 0 0 1-3.4 3.4v1.2a4.6 4.6 0 0 0 4.6-4.6h-1.2ZM11 7.6a3.4 3.4 0 0 1 3.4 3.4h1.2A4.6 4.6 0 0 0 11 6.4v1.2ZM7.6 11A3.4 3.4 0 0 1 11 7.6V6.4A4.6 4.6 0 0 0 6.4 11h1.2Zm3.4 3.4A3.4 3.4 0 0 1 7.6 11H6.4a4.6 4.6 0 0 0 4.6 4.6v-1.2Z"/>
  </symbol>
  <symbol id="icon-user-new" viewBox="0 0 20 20">
    <path fill="#030712" d="M5.128 4.419c0-1.172.513-2.296 1.427-3.125C7.47.466 8.708 0 10 0c1.292 0 2.531.466 3.445 1.294.913.829 1.427 1.953 1.427 3.125 0 1.171-.514 2.295-1.427 3.124-.914.829-2.153 1.294-3.445 1.294-1.292 0-2.531-.465-3.445-1.294-.914-.829-1.427-1.953-1.427-3.124ZM0 19.302c0-5.009 4.477-9.07 10-9.07s10 4.061 10 9.07a.666.666 0 0 1-.225.494.811.811 0 0 1-.544.204H.769a.811.811 0 0 1-.544-.204.667.667 0 0 1-.225-.494Z"/>
  </symbol>
  <symbol id="icon-user-line" viewBox="0 0 20 20">
    <path fill="currentColor" fill-rule="evenodd" d="M5.416 5.51c0-2.316 2.014-4.26 4.583-4.26 2.57 0 4.583 1.944 4.583 4.26 0 2.315-2.013 4.26-4.583 4.26-2.57 0-4.583-1.945-4.583-4.26ZM9.999 0C6.816 0 4.166 2.43 4.166 5.51c0 3.08 2.65 5.51 5.833 5.51 3.183 0 5.833-2.43 5.833-5.51C15.832 2.43 13.182 0 10 0ZM0 17.63a9.619 9.619 0 0 1 4.579-8.197c.308.31.653.594 1.03.846a8.373 8.373 0 0 0-4.359 7.352v.746c0 .207.168.375.375.375h16.75a.375.375 0 0 0 .375-.375v-.746c0-3.17-1.762-5.93-4.36-7.352a6.649 6.649 0 0 0 1.03-.846A9.62 9.62 0 0 1 20 17.631v.746c0 .897-.728 1.625-1.625 1.625H1.625A1.625 1.625 0 0 1 0 18.377v-.746Z" clip-rule="evenodd"/>
  </symbol>
  <symbol id="icon-report" viewBox="0 0 20 20">
    <path fill="#7594F9" fill-rule="evenodd" d="M15 0h5v20h-5V0ZM5 8H0v12h5V8Zm7.5 5h-5v7h5v-7Z" clip-rule="evenodd"/>
  </symbol>
  <!-- Bottom Drawer Icons Start -->
  <symbol id="icon-bottom-drawer-edit" viewBox="0 0 20 20">
    <path d="M6.03583 14.9975H2.5V11.4616L12.0292 1.93247C12.1854 1.77624 12.3974 1.68848 12.6183 1.68848C12.8393 1.68848 13.0512 1.77624 13.2075 1.93247L15.565 4.28913C15.6425 4.36653 15.7039 4.45843 15.7459 4.5596C15.7878 4.66076 15.8094 4.7692 15.8094 4.87871C15.8094 4.98823 15.7878 5.09667 15.7459 5.19783C15.7039 5.299 15.6425 5.3909 15.565 5.4683L6.03583 14.9975ZM2.5 16.6641H17.5V18.3308H2.5V16.6641Z" fill="currentColor"/>
  </symbol>
  <symbol id="icon-bottom-drawer-slider-prev" viewBox="0 0 20 20">
    <path d="M8.66632 10L14.8888 16.2225L13.1113 18L5.11133 10L13.1113 2L14.8888 3.7775L8.66632 10Z" fill="currentColor"/>
  </symbol>
  <symbol id="icon-bottom-drawer-placeholder-thumb" viewBox="0 0 20 20">
    <g clip-path="url(#clip0_14_96732_bottom_drawer)">
      <path fill-rule="evenodd" clip-rule="evenodd" d="M16.7909 3.65829C16.8076 3.65864 16.8243 3.65962 16.8411 3.66123C17.0162 3.67823 17.1775 3.76411 17.2894 3.89992C20.6287 7.95535 20.0483 13.9501 15.9929 17.2894C11.9376 20.6288 5.9428 20.0484 2.60342 15.993C-0.735942 11.9376 -0.155484 5.94286 3.89992 2.60348C4.8758 1.79798 6.00298 1.19587 7.21505 0.832613C8.42718 0.469356 9.69974 0.352293 10.9578 0.488311C11.0454 0.496405 11.1304 0.521824 11.2081 0.563093C11.2857 0.604361 11.3544 0.660657 11.4102 0.728701C11.4659 0.796745 11.5076 0.875188 11.5327 0.95947C11.5578 1.04374 11.5659 1.13218 11.5566 1.21963C11.5472 1.30711 11.5206 1.39179 11.4782 1.46886C11.4359 1.54592 11.3786 1.61379 11.3097 1.66854C11.2409 1.72329 11.1619 1.76379 11.0773 1.78773C10.9926 1.81167 10.9041 1.81854 10.8168 1.80792C9.73424 1.69067 8.63918 1.79129 7.59618 2.10392C6.55311 2.41654 5.58323 2.93473 4.74361 3.62811C3.49392 4.65711 2.57748 6.03355 2.11011 7.58341C1.64273 9.13329 1.64548 10.787 2.11792 12.3353C2.59042 13.8836 3.51142 15.257 4.76442 16.282C6.01748 17.3069 7.5463 17.9372 9.15761 18.0932C10.7689 18.2492 12.3902 17.9239 13.8166 17.1585C15.243 16.393 16.4104 15.2218 17.1711 13.7929C17.9319 12.3639 18.2518 10.7415 18.0905 9.13079C17.9469 7.69685 17.4276 6.32949 16.5893 5.16495L15.6027 6.06934C16.2519 7.01637 16.6548 8.11423 16.7698 9.26304C16.905 10.6126 16.6369 11.9719 15.9995 13.1691C15.3622 14.3663 14.3841 15.3476 13.189 15.9889C11.9939 16.6303 10.6355 16.9028 9.28549 16.7721C7.93549 16.6414 6.65461 16.1133 5.60474 15.2546C4.55493 14.3959 3.7833 13.2452 3.38742 11.9479C2.99161 10.6507 2.9893 9.26517 3.38086 7.96661C3.77243 6.66811 4.5403 5.51486 5.5873 4.65268C5.72317 4.5408 5.89792 4.48749 6.07311 4.50443C6.2483 4.52143 6.40955 4.60724 6.52142 4.74311C6.6333 4.87899 6.68667 5.05374 6.66967 5.22893C6.65274 5.40411 6.56686 5.56543 6.43099 5.6773C5.58662 6.37254 4.96743 7.30261 4.65162 8.34986C4.33587 9.39705 4.33768 10.5144 4.65693 11.5605C4.97618 12.6067 5.59843 13.5347 6.44511 14.2272C7.29174 14.9197 8.32474 15.3456 9.41342 15.451C10.5021 15.5564 11.5976 15.3366 12.5614 14.8194C13.5252 14.3022 14.3139 13.5109 14.828 12.5454C15.342 11.5799 15.5582 10.4837 15.4492 9.39536C15.3627 8.53191 15.0746 7.70423 14.6121 6.9774L13.6136 7.89274C14.0294 8.63539 14.2131 9.49266 14.1299 10.3515C14.0225 11.461 13.4786 12.4825 12.6181 13.191C11.7576 13.8996 10.6509 14.2374 9.54139 14.1299C8.43183 14.0225 7.41045 13.4787 6.70183 12.6182C6.58995 12.4823 6.53664 12.3075 6.55364 12.1324C6.57058 11.9572 6.65645 11.7959 6.79233 11.684C6.9282 11.5722 7.10295 11.5188 7.27814 11.5358C7.45333 11.5527 7.61458 11.6386 7.72645 11.7745C8.21127 12.3632 8.91014 12.7353 9.66927 12.8088C10.4285 12.8824 11.1857 12.6512 11.7745 12.1664C12.3632 11.6816 12.7353 10.9827 12.8088 10.2236C12.8553 9.74302 12.7798 9.26318 12.5951 8.82635L9.94937 11.2516L8.80063 9.99842L9.03695 9.7818C9.08307 9.32976 9.46144 8.97603 9.92392 8.96874L16.3006 3.12342L16.7909 3.65829Z" fill="currentColor"/>
    </g>
    <defs>
      <clipPath id="clip0_14_96732_bottom_drawer"> <!-- ID를 약간 수정하여 충돌 방지 -->
        <rect width="20" height="20" fill="white"/>
      </clipPath>
    </defs>
  </symbol>
  <symbol id="icon-bottom-drawer-slider-next" viewBox="0 0 20 20">
    <path d="M11.3337 10L5.11117 16.2225L6.88867 18L14.8887 10L6.88867 2L5.11117 3.7775L11.3337 10Z" fill="currentColor"/>
  </symbol>
  <symbol id="icon-bottom-drawer-toggle-open" viewBox="0 0 20 20">
    <path fill-rule="evenodd" clip-rule="evenodd" d="M2 12.9975L10 4.9975L18 12.9975L16 15.0025L10 8.9975L4 15.0025L2 12.9975Z" fill="currentColor"/>
  </symbol>
  <symbol id="icon-bottom-drawer-toggle-close" viewBox="0 0 20 20">
    <path fill-rule="evenodd" clip-rule="evenodd" d="M18 7.0025L10 15.0025L2 7.0025L4 4.9975L10 11.0025L16 4.9975L18 7.0025Z" fill="currentColor"/>
  </symbol>
  <!-- Bottom Drawer Icons End -->
  <!-- Modal Icons Start -->
  <symbol id="icon-modal-close-specific" viewBox="0 0 20 20">
    <path d="M11.319 10L17.9518 2.32147C18.063 2.19387 17.9695 2 17.7977 2H15.7813C15.6625 2 15.5488 2.05153 15.4705 2.13988L10 8.47362L4.52951 2.13988C4.45371 2.05153 4.34 2 4.21872 2H2.20235C2.03052 2 1.93703 2.19387 2.04821 2.32147L8.68102 10L2.04821 17.6785C2.02331 17.707 2.00733 17.7418 2.00218 17.7788C1.99702 17.8158 2.00291 17.8534 2.01914 17.8873C2.03537 17.9211 2.06125 17.9497 2.09373 17.9697C2.1262 17.9897 2.1639 18.0002 2.20235 18H4.21872C4.33748 18 4.45118 17.9485 4.52951 17.8601L10 11.5264L15.4705 17.8601C15.5463 17.9485 15.66 18 15.7813 18H17.7977C17.9695 18 18.063 17.8061 17.9518 17.6785L11.319 10Z" fill="currentColor"/>
  </symbol>
  <symbol id="icon-searchbar-magnifier" viewBox="0 0 24 24">
    <path d="M21 21L16.657 16.657M16.657 16.657C17.3999 15.9141 17.9892 15.0322 18.3912 14.0615C18.7933 13.0909 19.0002 12.0506 19.0002 11C19.0002 9.94939 18.7933 8.90908 18.3912 7.93845C17.9892 6.96782 17.3999 6.08588 16.657 5.34299C15.9141 4.6001 15.0322 4.01081 14.0615 3.60877C13.0909 3.20672 12.0506 2.99979 11 2.99979C9.94939 2.99979 8.90908 3.20672 7.93845 3.60877C6.96782 4.01081 6.08588 4.6001 5.34299 5.34299C3.84266 6.84332 2.99979 8.87821 2.99979 11C2.99979 13.1218 3.84266 15.1567 5.34299 16.657C6.84332 18.1573 8.87821 19.0002 11 19.0002C13.1218 19.0002 15.1567 18.1573 16.657 16.657Z" stroke="currentColor" stroke-width="1.5" stroke-linecap="round" stroke-linejoin="round" fill="none"/>
  </symbol>
  <symbol id="icon-recent-item-remove" viewBox="0 0 20 20">
    <path d="M11.319 10L17.9518 2.32147C18.063 2.19387 17.9695 2 17.7977 2H15.7813C15.6625 2 15.5488 2.05153 15.4705 2.13988L10 8.47362L4.52951 2.13988C4.45371 2.05153 4.34 2 4.21872 2H2.20235C2.03052 2 1.93703 2.19387 2.04821 2.32147L8.68102 10L2.04821 17.6785C2.02331 17.707 2.00733 17.7418 2.00218 17.7788C1.99702 17.8158 2.00291 17.8534 2.01914 17.8873C2.03537 17.9211 2.06125 17.9497 2.09373 17.9697C2.1262 17.9897 2.1639 18.0002 2.20235 18H4.21872C4.33748 18 4.45118 17.9485 4.52951 17.8601L10 11.5264L15.4705 17.8601C15.5463 17.9485 15.66 18 15.7813 18H17.7977C17.9695 18 18.063 17.8061 17.9518 17.6785L11.319 10Z" fill="currentColor"/>
  </symbol>
  <symbol id="icon-search-new" viewBox="0 0 24 24">
    <path d="M21 21L16.657 16.657M16.657 16.657C17.3999 15.9141 17.9892 15.0322 18.3912 14.0615C18.7933 13.0909 19.0002 12.0506 19.0002 11C19.0002 9.94939 18.7933 8.90908 18.3912 7.93845C17.9892 6.96782 17.3999 6.08588 16.657 5.34299C15.9141 4.6001 15.0322 4.01081 14.0615 3.60877C13.0909 3.20672 12.0506 2.99979 11 2.99979C9.94939 2.99979 8.90908 3.20672 7.93845 3.60877C6.96782 4.01081 6.08588 4.6001 5.34299 5.34299C3.84266 6.84332 2.99979 8.87821 2.99979 11C2.99979 13.1218 3.84266 15.1567 5.34299 16.657C6.84332 18.1573 8.87821 19.0002 11 19.0002C13.1218 19.0002 15.1567 18.1573 16.657 16.657Z" stroke="currentColor" stroke-width="1.5" stroke-linecap="round" stroke-linejoin="round" fill="none"/>
  </symbol>
  <!-- Modal Icons End -->
  <!-- 
  <symbol id="" viewBox="0 0 20 20">

  </symbol> 
  -->
</svg>