<svg width="300" height="40" viewBox="0 0 300 40" fill="none" xmlns="http://www.w3.org/2000/svg">
  <g clip-path="url(#clip0_1_36182)">
    <path
      d="M205.518 7.9084L197.462 15.1885L199.384 17.0689C199.384 17.0689 205.479 11.7324 205.559 11.6638C205.635 11.7324 211.728 17.0689 211.728 17.0689L213.65 15.1885L205.559 7.87144L205.518 7.9084Z"
      fill="#00377C"
    />
    <path
      d="M248.166 21.9918C244.598 21.9918 241.699 24.5132 241.699 27.6151C241.699 30.7197 244.598 33.2455 248.166 33.2455C251.737 33.2455 254.639 30.7197 254.639 27.6151C254.639 24.5132 251.737 21.9918 248.166 21.9918ZM248.166 30.881C246.157 30.881 244.522 29.4144 244.522 27.6151C244.522 25.8194 246.157 24.3599 248.166 24.3599C250.179 24.3599 251.811 25.8194 251.811 27.6151C251.811 29.4144 250.179 30.881 248.166 30.881Z"
      fill="#00377C"
    />
    <path
      d="M255.827 8.3292H240.448V10.6919H245.846L240.293 15.7481L242.217 17.6268L248.166 12.3713C248.248 12.4407 254.116 17.6268 254.116 17.6268L256.038 15.7481C256.038 15.7481 250.707 10.8947 250.487 10.6919H255.887V8.3292H255.827Z"
      fill="#00377C"
    />
    <path d="M257.94 18.5144H238.335V20.9195H258.002V18.5144H257.94Z" fill="#00377C" />
    <path d="M192.25 8.30099H189.221V30.2387H192.312V8.30099H192.25Z" fill="#00377C" />
    <path
      d="M173.812 8.6372H173.751V11.0035H183.144V22.2897H186.203V10.0245C186.203 9.05276 185.765 8.6372 184.73 8.6372H173.812Z"
      fill="#00377C"
    />
    <path d="M277.141 8.30099H274.113V30.2387H277.203V8.30099H277.141Z" fill="#00377C" />
    <path
      d="M258.702 8.6372H258.642V11.0035H268.035V22.2897H271.094V10.0245C271.094 9.05276 270.654 8.6372 269.625 8.6372H258.702Z"
      fill="#00377C"
    />
    <path d="M228.252 21.474H225.311V25.6612H216.983V28.069H236.646V25.6612H228.317V21.474H228.252Z" fill="#00377C" />
    <path
      d="M234.314 8.6372H231.328V12.106H222.288V8.6372H219.241V18.9119C219.264 19.817 219.77 20.2172 220.773 20.2172L232.859 20.2362C233.84 20.2172 234.346 19.817 234.375 18.9119V8.6372H234.314ZM231.328 17.8275H222.287V14.5174H231.328V17.8275Z"
      fill="#00377C"
    />
    <path d="M299.939 18.5144H280.333V20.8753H300V18.5144H299.939Z" fill="#00377C" />
    <path
      d="M282.538 8.3292H282.475V10.6919H294.45V16.7064H297.512V9.54976C297.462 8.69158 297.023 8.3292 296.052 8.3292H282.538Z"
      fill="#00377C"
    />
    <path
      d="M296.378 23.4302H283.617C282.783 23.4302 282.427 23.7628 282.427 24.5552V31.2881C282.427 32.0769 282.783 32.4149 283.617 32.4149H296.378C297.209 32.4149 297.563 32.0769 297.563 31.2881V24.5552C297.563 23.7628 297.209 23.4302 296.378 23.4302ZM294.542 30.0432H285.448V25.7929H294.542V30.0432Z"
      fill="#00377C"
    />
    <path
      d="M215.326 18.252H195.723V20.6571H204.057V22.8422H198.129V25.2364H209.947V26.3948H199.32C198.486 26.3948 198.129 26.7328 198.129 27.5198V31.3456C198.129 32.1343 198.486 32.4679 199.32 32.4679H212.985V30.0745H201.164V28.789H211.794C212.632 28.789 212.985 28.4546 212.985 27.664V23.9672C212.985 23.1784 212.632 22.8422 211.794 22.8422H207.053V20.6571H215.388V18.252H215.326Z"
      fill="#00377C"
    />
    <path d="M0 40.0001H40.0742V0.000228882H0V40.0001Z" fill="#B3D334" />
    <path d="M75.7085 32.6012H69.2646V8.20259H75.7085V32.6012Z" fill="#00377C" />
    <path
      d="M118.029 28.1874V18.9971C118.029 15.5211 115.144 14.5989 113.614 14.5917H94.7589V8.22028H88.3205V27.7511C88.3178 27.825 88.2943 29.5711 89.647 30.9548C90.6999 32.0312 92.2684 32.5748 94.3119 32.5748H113.611C115.137 32.5748 118.029 31.6544 118.029 28.1874ZM94.7589 19.8616H111.564V27.304H94.7589V19.8616Z"
      fill="#00377C"
    />
    <path
      d="M151.975 8.22H134.27C132.229 8.22 130.666 8.76268 129.607 9.83991C128.255 11.2218 128.282 12.9688 128.282 13.0392V27.7229C128.282 27.7716 128.367 32.5754 134.255 32.5754H151.981C157.871 32.5754 157.959 27.7716 157.959 27.7265V13.0301C157.959 12.9688 157.989 11.2218 156.631 9.83991C155.583 8.76268 154.016 8.22 151.975 8.22ZM151.525 27.3037H134.72V13.4899H151.525V27.3037Z"
      fill="#00377C"
    />
    <path d="M24.749 9.7288V12.1041H29.9756V32.6013H36.4195V5.9382L24.749 9.7288Z" fill="#00377C" />
    <path
      d="M47.9245 20.0568L60.5187 8.29558H52.2517L40.0747 20.0568L52.3628 32.4779H60.6009L47.9245 20.0568Z"
      fill="#00377C"
    />
    <path d="M0 40.0001H40.0742V0.000198364H0V40.0001Z" fill="#B3D334" />
    <path d="M75.7085 32.6012H69.2646V8.20262H75.7085V32.6012Z" fill="#00377C" />
    <path
      d="M118.029 28.1874V18.9971C118.029 15.5211 115.144 14.5989 113.614 14.5917H94.7589V8.22028H88.3205V27.7511C88.3178 27.825 88.2943 29.5711 89.647 30.9548C90.6999 32.0312 92.2684 32.5748 94.3119 32.5748H113.611C115.137 32.5748 118.029 31.6544 118.029 28.1874ZM94.7589 19.8616H111.564V27.304H94.7589V19.8616Z"
      fill="#00377C"
    />
    <path
      d="M151.975 8.22002H134.27C132.229 8.22002 130.666 8.76269 129.607 9.83993C128.255 11.2218 128.282 12.9689 128.282 13.0392V27.7229C128.282 27.7716 128.367 32.5754 134.255 32.5754H151.981C157.871 32.5754 157.959 27.7716 157.959 27.7265V13.0302C157.959 12.9689 157.989 11.2218 156.631 9.83993C155.583 8.76269 154.016 8.22002 151.975 8.22002ZM151.525 27.3037H134.72V13.4899H151.525V27.3037Z"
      fill="#00377C"
    />
    <path d="M24.749 9.72878V12.1041H29.9756V32.6013H36.4195V5.93819L24.749 9.72878Z" fill="#00377C" />
    <path
      d="M47.9245 20.0568L60.5187 8.29558H52.2517L40.0747 20.0568L52.3628 32.4779H60.6009L47.9245 20.0568Z"
      fill="#00377C"
    />
  </g>
  <defs>
    <clipPath id="clip0_1_36182">
      <rect width="300" height="40" fill="white" />
    </clipPath>
  </defs>
</svg>